<mxfile host="app.diagrams.net" modified="2023-06-25T06:15:19.136Z" agent="Mozilla/5.0 (Windows NT 10.0; Win64; x64) AppleWebKit/537.36 (KHTML, like Gecko) Chrome/114.0.0.0 Safari/537.36" etag="21iCRhyQR0Bc4R9YU44s" version="21.5.0" type="google">
  <diagram name="Page-1" id="oGsolnVJVmHy86Zzl_Rz">
    <mxGraphModel grid="1" page="1" gridSize="10" guides="1" tooltips="1" connect="1" arrows="1" fold="1" pageScale="1" pageWidth="850" pageHeight="1100" math="0" shadow="0">
      <root>
        <mxCell id="0" />
        <mxCell id="1" parent="0" />
        <mxCell id="Qi_TZ8nRlaXqWhGWmoXV-13" value="MyGdxGame" style="swimlane;fontStyle=1;align=center;verticalAlign=top;childLayout=stackLayout;horizontal=1;startSize=26;horizontalStack=0;resizeParent=1;resizeParentMax=0;resizeLast=0;collapsible=1;marginBottom=0;whiteSpace=wrap;html=1;" vertex="1" parent="1">
          <mxGeometry x="-1160" y="1130" width="510" height="332" as="geometry" />
        </mxCell>
        <mxCell id="Qi_TZ8nRlaXqWhGWmoXV-23" value="+&amp;nbsp; WORLD_WIDTH :int = 800" style="text;strokeColor=none;fillColor=none;align=left;verticalAlign=top;spacingLeft=4;spacingRight=4;overflow=hidden;rotatable=0;points=[[0,0.5],[1,0.5]];portConstraint=eastwest;whiteSpace=wrap;html=1;" vertex="1" parent="Qi_TZ8nRlaXqWhGWmoXV-13">
          <mxGeometry y="26" width="510" height="26" as="geometry" />
        </mxCell>
        <mxCell id="Qi_TZ8nRlaXqWhGWmoXV-220" value="+&amp;nbsp; WORLD_HEIGHT :int = 600" style="text;strokeColor=none;fillColor=none;align=left;verticalAlign=top;spacingLeft=4;spacingRight=4;overflow=hidden;rotatable=0;points=[[0,0.5],[1,0.5]];portConstraint=eastwest;whiteSpace=wrap;html=1;" vertex="1" parent="Qi_TZ8nRlaXqWhGWmoXV-13">
          <mxGeometry y="52" width="510" height="26" as="geometry" />
        </mxCell>
        <mxCell id="Qi_TZ8nRlaXqWhGWmoXV-221" value="manager : AssetManager" style="text;strokeColor=none;fillColor=none;align=left;verticalAlign=top;spacingLeft=4;spacingRight=4;overflow=hidden;rotatable=0;points=[[0,0.5],[1,0.5]];portConstraint=eastwest;whiteSpace=wrap;html=1;" vertex="1" parent="Qi_TZ8nRlaXqWhGWmoXV-13">
          <mxGeometry y="78" width="510" height="26" as="geometry" />
        </mxCell>
        <mxCell id="Qi_TZ8nRlaXqWhGWmoXV-15" value="" style="line;strokeWidth=1;fillColor=none;align=left;verticalAlign=middle;spacingTop=-1;spacingLeft=3;spacingRight=3;rotatable=0;labelPosition=right;points=[];portConstraint=eastwest;strokeColor=inherit;" vertex="1" parent="Qi_TZ8nRlaXqWhGWmoXV-13">
          <mxGeometry y="104" width="510" height="8" as="geometry" />
        </mxCell>
        <mxCell id="Qi_TZ8nRlaXqWhGWmoXV-16" value="+ getAssetManager() : AssetManager&amp;nbsp;" style="text;strokeColor=none;fillColor=none;align=left;verticalAlign=top;spacingLeft=4;spacingRight=4;overflow=hidden;rotatable=0;points=[[0,0.5],[1,0.5]];portConstraint=eastwest;whiteSpace=wrap;html=1;" vertex="1" parent="Qi_TZ8nRlaXqWhGWmoXV-13">
          <mxGeometry y="112" width="510" height="26" as="geometry" />
        </mxCell>
        <mxCell id="Qi_TZ8nRlaXqWhGWmoXV-25" value="+ creat() : void" style="text;strokeColor=none;fillColor=none;align=left;verticalAlign=top;spacingLeft=4;spacingRight=4;overflow=hidden;rotatable=0;points=[[0,0.5],[1,0.5]];portConstraint=eastwest;whiteSpace=wrap;html=1;" vertex="1" parent="Qi_TZ8nRlaXqWhGWmoXV-13">
          <mxGeometry y="138" width="510" height="26" as="geometry" />
        </mxCell>
        <mxCell id="Qi_TZ8nRlaXqWhGWmoXV-26" value="+ playMenuMusic() : void" style="text;strokeColor=none;fillColor=none;align=left;verticalAlign=top;spacingLeft=4;spacingRight=4;overflow=hidden;rotatable=0;points=[[0,0.5],[1,0.5]];portConstraint=eastwest;whiteSpace=wrap;html=1;" vertex="1" parent="Qi_TZ8nRlaXqWhGWmoXV-13">
          <mxGeometry y="164" width="510" height="26" as="geometry" />
        </mxCell>
        <mxCell id="Qi_TZ8nRlaXqWhGWmoXV-27" value="+ playGameMusic() : void" style="text;strokeColor=none;fillColor=none;align=left;verticalAlign=top;spacingLeft=4;spacingRight=4;overflow=hidden;rotatable=0;points=[[0,0.5],[1,0.5]];portConstraint=eastwest;whiteSpace=wrap;html=1;" vertex="1" parent="Qi_TZ8nRlaXqWhGWmoXV-13">
          <mxGeometry y="190" width="510" height="26" as="geometry" />
        </mxCell>
        <mxCell id="Qi_TZ8nRlaXqWhGWmoXV-223" value="+ render() : void" style="text;strokeColor=none;fillColor=none;align=left;verticalAlign=top;spacingLeft=4;spacingRight=4;overflow=hidden;rotatable=0;points=[[0,0.5],[1,0.5]];portConstraint=eastwest;whiteSpace=wrap;html=1;" vertex="1" parent="Qi_TZ8nRlaXqWhGWmoXV-13">
          <mxGeometry y="216" width="510" height="26" as="geometry" />
        </mxCell>
        <mxCell id="Qi_TZ8nRlaXqWhGWmoXV-224" value="+ createAnimationFrames( tex : Texture, frameWidth : int, frameHeight : int, frameCount : int, &lt;br&gt;flipx : boolean, flipy : boolean ) :TextureRegion[]" style="text;strokeColor=none;fillColor=none;align=left;verticalAlign=top;spacingLeft=4;spacingRight=4;overflow=hidden;rotatable=0;points=[[0,0.5],[1,0.5]];portConstraint=eastwest;whiteSpace=wrap;html=1;" vertex="1" parent="Qi_TZ8nRlaXqWhGWmoXV-13">
          <mxGeometry y="242" width="510" height="38" as="geometry" />
        </mxCell>
        <mxCell id="Qi_TZ8nRlaXqWhGWmoXV-226" value="+ resize(width : int, height : int) : void" style="text;strokeColor=none;fillColor=none;align=left;verticalAlign=top;spacingLeft=4;spacingRight=4;overflow=hidden;rotatable=0;points=[[0,0.5],[1,0.5]];portConstraint=eastwest;whiteSpace=wrap;html=1;" vertex="1" parent="Qi_TZ8nRlaXqWhGWmoXV-13">
          <mxGeometry y="280" width="510" height="26" as="geometry" />
        </mxCell>
        <mxCell id="Qi_TZ8nRlaXqWhGWmoXV-227" value="+ dispose() : void" style="text;strokeColor=none;fillColor=none;align=left;verticalAlign=top;spacingLeft=4;spacingRight=4;overflow=hidden;rotatable=0;points=[[0,0.5],[1,0.5]];portConstraint=eastwest;whiteSpace=wrap;html=1;" vertex="1" parent="Qi_TZ8nRlaXqWhGWmoXV-13">
          <mxGeometry y="306" width="510" height="26" as="geometry" />
        </mxCell>
        <mxCell id="UipS37Et1Q5YVo5d0hPh-1" value="Character" style="swimlane;fontStyle=1;align=center;verticalAlign=top;childLayout=stackLayout;horizontal=1;startSize=26;horizontalStack=0;resizeParent=1;resizeParentMax=0;resizeLast=0;collapsible=1;marginBottom=0;whiteSpace=wrap;html=1;" vertex="1" parent="1">
          <mxGeometry x="1180" y="40" width="470" height="1512" as="geometry" />
        </mxCell>
        <mxCell id="UipS37Et1Q5YVo5d0hPh-5" value="# float : health&amp;nbsp;" style="text;strokeColor=none;fillColor=none;align=left;verticalAlign=top;spacingLeft=4;spacingRight=4;overflow=hidden;rotatable=0;points=[[0,0.5],[1,0.5]];portConstraint=eastwest;whiteSpace=wrap;html=1;" vertex="1" parent="UipS37Et1Q5YVo5d0hPh-1">
          <mxGeometry y="26" width="470" height="26" as="geometry" />
        </mxCell>
        <mxCell id="UipS37Et1Q5YVo5d0hPh-140" value="# float : speed&amp;nbsp;" style="text;strokeColor=none;fillColor=none;align=left;verticalAlign=top;spacingLeft=4;spacingRight=4;overflow=hidden;rotatable=0;points=[[0,0.5],[1,0.5]];portConstraint=eastwest;whiteSpace=wrap;html=1;" vertex="1" parent="UipS37Et1Q5YVo5d0hPh-1">
          <mxGeometry y="52" width="470" height="26" as="geometry" />
        </mxCell>
        <mxCell id="UipS37Et1Q5YVo5d0hPh-141" value="# float : stateTime&amp;nbsp;" style="text;strokeColor=none;fillColor=none;align=left;verticalAlign=top;spacingLeft=4;spacingRight=4;overflow=hidden;rotatable=0;points=[[0,0.5],[1,0.5]];portConstraint=eastwest;whiteSpace=wrap;html=1;" vertex="1" parent="UipS37Et1Q5YVo5d0hPh-1">
          <mxGeometry y="78" width="470" height="26" as="geometry" />
        </mxCell>
        <mxCell id="UipS37Et1Q5YVo5d0hPh-2" value="# Vector2 : position, movement" style="text;strokeColor=none;fillColor=none;align=left;verticalAlign=top;spacingLeft=4;spacingRight=4;overflow=hidden;rotatable=0;points=[[0,0.5],[1,0.5]];portConstraint=eastwest;whiteSpace=wrap;html=1;" vertex="1" parent="UipS37Et1Q5YVo5d0hPh-1">
          <mxGeometry y="104" width="470" height="26" as="geometry" />
        </mxCell>
        <mxCell id="UipS37Et1Q5YVo5d0hPh-144" value="# Vector2 : movement" style="text;strokeColor=none;fillColor=none;align=left;verticalAlign=top;spacingLeft=4;spacingRight=4;overflow=hidden;rotatable=0;points=[[0,0.5],[1,0.5]];portConstraint=eastwest;whiteSpace=wrap;html=1;" vertex="1" parent="UipS37Et1Q5YVo5d0hPh-1">
          <mxGeometry y="130" width="470" height="26" as="geometry" />
        </mxCell>
        <mxCell id="UipS37Et1Q5YVo5d0hPh-6" value="# State : state" style="text;strokeColor=none;fillColor=none;align=left;verticalAlign=top;spacingLeft=4;spacingRight=4;overflow=hidden;rotatable=0;points=[[0,0.5],[1,0.5]];portConstraint=eastwest;whiteSpace=wrap;html=1;" vertex="1" parent="UipS37Et1Q5YVo5d0hPh-1">
          <mxGeometry y="156" width="470" height="26" as="geometry" />
        </mxCell>
        <mxCell id="UipS37Et1Q5YVo5d0hPh-7" value="# Direction : animationDirection" style="text;strokeColor=none;fillColor=none;align=left;verticalAlign=top;spacingLeft=4;spacingRight=4;overflow=hidden;rotatable=0;points=[[0,0.5],[1,0.5]];portConstraint=eastwest;whiteSpace=wrap;html=1;" vertex="1" parent="UipS37Et1Q5YVo5d0hPh-1">
          <mxGeometry y="182" width="470" height="26" as="geometry" />
        </mxCell>
        <mxCell id="UipS37Et1Q5YVo5d0hPh-8" value="# Animation&amp;lt;TextureRegion&amp;gt; : idleLeftAnimation" style="text;strokeColor=none;fillColor=none;align=left;verticalAlign=top;spacingLeft=4;spacingRight=4;overflow=hidden;rotatable=0;points=[[0,0.5],[1,0.5]];portConstraint=eastwest;whiteSpace=wrap;html=1;" vertex="1" parent="UipS37Et1Q5YVo5d0hPh-1">
          <mxGeometry y="208" width="470" height="30" as="geometry" />
        </mxCell>
        <mxCell id="UipS37Et1Q5YVo5d0hPh-12" value="# Animation&amp;lt;TextureRegion&amp;gt; : idleRightAnimation" style="text;strokeColor=none;fillColor=none;align=left;verticalAlign=top;spacingLeft=4;spacingRight=4;overflow=hidden;rotatable=0;points=[[0,0.5],[1,0.5]];portConstraint=eastwest;whiteSpace=wrap;html=1;" vertex="1" parent="UipS37Et1Q5YVo5d0hPh-1">
          <mxGeometry y="238" width="470" height="30" as="geometry" />
        </mxCell>
        <mxCell id="UipS37Et1Q5YVo5d0hPh-13" value="# Animation&amp;lt;TextureRegion&amp;gt; : idleRightAnimation" style="text;strokeColor=none;fillColor=none;align=left;verticalAlign=top;spacingLeft=4;spacingRight=4;overflow=hidden;rotatable=0;points=[[0,0.5],[1,0.5]];portConstraint=eastwest;whiteSpace=wrap;html=1;" vertex="1" parent="UipS37Et1Q5YVo5d0hPh-1">
          <mxGeometry y="268" width="470" height="30" as="geometry" />
        </mxCell>
        <mxCell id="UipS37Et1Q5YVo5d0hPh-16" value="# Animation&amp;lt;TextureRegion&amp;gt; : attackRightAnimation" style="text;strokeColor=none;fillColor=none;align=left;verticalAlign=top;spacingLeft=4;spacingRight=4;overflow=hidden;rotatable=0;points=[[0,0.5],[1,0.5]];portConstraint=eastwest;whiteSpace=wrap;html=1;" vertex="1" parent="UipS37Et1Q5YVo5d0hPh-1">
          <mxGeometry y="298" width="470" height="30" as="geometry" />
        </mxCell>
        <mxCell id="UipS37Et1Q5YVo5d0hPh-17" value="# Animation&amp;lt;TextureRegion&amp;gt; : dieLeftAnimation" style="text;strokeColor=none;fillColor=none;align=left;verticalAlign=top;spacingLeft=4;spacingRight=4;overflow=hidden;rotatable=0;points=[[0,0.5],[1,0.5]];portConstraint=eastwest;whiteSpace=wrap;html=1;" vertex="1" parent="UipS37Et1Q5YVo5d0hPh-1">
          <mxGeometry y="328" width="470" height="30" as="geometry" />
        </mxCell>
        <mxCell id="UipS37Et1Q5YVo5d0hPh-18" value="# Animation&amp;lt;TextureRegion&amp;gt; : dieRightAnimation" style="text;strokeColor=none;fillColor=none;align=left;verticalAlign=top;spacingLeft=4;spacingRight=4;overflow=hidden;rotatable=0;points=[[0,0.5],[1,0.5]];portConstraint=eastwest;whiteSpace=wrap;html=1;" vertex="1" parent="UipS37Et1Q5YVo5d0hPh-1">
          <mxGeometry y="358" width="470" height="30" as="geometry" />
        </mxCell>
        <mxCell id="UipS37Et1Q5YVo5d0hPh-15" value="# Animation&amp;lt;TextureRegion&amp;gt; : attackLeftAnimation" style="text;strokeColor=none;fillColor=none;align=left;verticalAlign=top;spacingLeft=4;spacingRight=4;overflow=hidden;rotatable=0;points=[[0,0.5],[1,0.5]];portConstraint=eastwest;whiteSpace=wrap;html=1;" vertex="1" parent="UipS37Et1Q5YVo5d0hPh-1">
          <mxGeometry y="388" width="470" height="30" as="geometry" />
        </mxCell>
        <mxCell id="UipS37Et1Q5YVo5d0hPh-14" value="# Animation&amp;lt;TextureRegion&amp;gt; : moveRightAnimation" style="text;strokeColor=none;fillColor=none;align=left;verticalAlign=top;spacingLeft=4;spacingRight=4;overflow=hidden;rotatable=0;points=[[0,0.5],[1,0.5]];portConstraint=eastwest;whiteSpace=wrap;html=1;" vertex="1" parent="UipS37Et1Q5YVo5d0hPh-1">
          <mxGeometry y="418" width="470" height="30" as="geometry" />
        </mxCell>
        <mxCell id="UipS37Et1Q5YVo5d0hPh-3" value="" style="line;strokeWidth=1;fillColor=none;align=left;verticalAlign=middle;spacingTop=-1;spacingLeft=3;spacingRight=3;rotatable=0;labelPosition=right;points=[];portConstraint=eastwest;strokeColor=inherit;" vertex="1" parent="UipS37Et1Q5YVo5d0hPh-1">
          <mxGeometry y="448" width="470" height="8" as="geometry" />
        </mxCell>
        <mxCell id="UipS37Et1Q5YVo5d0hPh-4" value="+ getPosition() : Vector 2" style="text;strokeColor=none;fillColor=none;align=left;verticalAlign=top;spacingLeft=4;spacingRight=4;overflow=hidden;rotatable=0;points=[[0,0.5],[1,0.5]];portConstraint=eastwest;whiteSpace=wrap;html=1;" vertex="1" parent="UipS37Et1Q5YVo5d0hPh-1">
          <mxGeometry y="456" width="470" height="32" as="geometry" />
        </mxCell>
        <mxCell id="UipS37Et1Q5YVo5d0hPh-19" value="+ getMovement() : Vector 2" style="text;strokeColor=none;fillColor=none;align=left;verticalAlign=top;spacingLeft=4;spacingRight=4;overflow=hidden;rotatable=0;points=[[0,0.5],[1,0.5]];portConstraint=eastwest;whiteSpace=wrap;html=1;" vertex="1" parent="UipS37Et1Q5YVo5d0hPh-1">
          <mxGeometry y="488" width="470" height="32" as="geometry" />
        </mxCell>
        <mxCell id="UipS37Et1Q5YVo5d0hPh-20" value="+ getXPos() : float" style="text;strokeColor=none;fillColor=none;align=left;verticalAlign=top;spacingLeft=4;spacingRight=4;overflow=hidden;rotatable=0;points=[[0,0.5],[1,0.5]];portConstraint=eastwest;whiteSpace=wrap;html=1;" vertex="1" parent="UipS37Et1Q5YVo5d0hPh-1">
          <mxGeometry y="520" width="470" height="32" as="geometry" />
        </mxCell>
        <mxCell id="UipS37Et1Q5YVo5d0hPh-22" value="+ getYPos() : float" style="text;strokeColor=none;fillColor=none;align=left;verticalAlign=top;spacingLeft=4;spacingRight=4;overflow=hidden;rotatable=0;points=[[0,0.5],[1,0.5]];portConstraint=eastwest;whiteSpace=wrap;html=1;" vertex="1" parent="UipS37Et1Q5YVo5d0hPh-1">
          <mxGeometry y="552" width="470" height="32" as="geometry" />
        </mxCell>
        <mxCell id="UipS37Et1Q5YVo5d0hPh-23" value="+ setPosition(position : Vector2) : void" style="text;strokeColor=none;fillColor=none;align=left;verticalAlign=top;spacingLeft=4;spacingRight=4;overflow=hidden;rotatable=0;points=[[0,0.5],[1,0.5]];portConstraint=eastwest;whiteSpace=wrap;html=1;" vertex="1" parent="UipS37Et1Q5YVo5d0hPh-1">
          <mxGeometry y="584" width="470" height="32" as="geometry" />
        </mxCell>
        <mxCell id="UipS37Et1Q5YVo5d0hPh-24" value="+ setMovement(movement : Vector2) : void" style="text;strokeColor=none;fillColor=none;align=left;verticalAlign=top;spacingLeft=4;spacingRight=4;overflow=hidden;rotatable=0;points=[[0,0.5],[1,0.5]];portConstraint=eastwest;whiteSpace=wrap;html=1;" vertex="1" parent="UipS37Et1Q5YVo5d0hPh-1">
          <mxGeometry y="616" width="470" height="32" as="geometry" />
        </mxCell>
        <mxCell id="UipS37Et1Q5YVo5d0hPh-21" value="+ getHealth() : float" style="text;strokeColor=none;fillColor=none;align=left;verticalAlign=top;spacingLeft=4;spacingRight=4;overflow=hidden;rotatable=0;points=[[0,0.5],[1,0.5]];portConstraint=eastwest;whiteSpace=wrap;html=1;" vertex="1" parent="UipS37Et1Q5YVo5d0hPh-1">
          <mxGeometry y="648" width="470" height="32" as="geometry" />
        </mxCell>
        <mxCell id="UipS37Et1Q5YVo5d0hPh-25" value="+ setHealth(health : float) : void" style="text;strokeColor=none;fillColor=none;align=left;verticalAlign=top;spacingLeft=4;spacingRight=4;overflow=hidden;rotatable=0;points=[[0,0.5],[1,0.5]];portConstraint=eastwest;whiteSpace=wrap;html=1;" vertex="1" parent="UipS37Et1Q5YVo5d0hPh-1">
          <mxGeometry y="680" width="470" height="32" as="geometry" />
        </mxCell>
        <mxCell id="UipS37Et1Q5YVo5d0hPh-26" value="+ getSpeed() : float" style="text;strokeColor=none;fillColor=none;align=left;verticalAlign=top;spacingLeft=4;spacingRight=4;overflow=hidden;rotatable=0;points=[[0,0.5],[1,0.5]];portConstraint=eastwest;whiteSpace=wrap;html=1;" vertex="1" parent="UipS37Et1Q5YVo5d0hPh-1">
          <mxGeometry y="712" width="470" height="32" as="geometry" />
        </mxCell>
        <mxCell id="UipS37Et1Q5YVo5d0hPh-27" value="+ setSpeed(speed : float) : void" style="text;strokeColor=none;fillColor=none;align=left;verticalAlign=top;spacingLeft=4;spacingRight=4;overflow=hidden;rotatable=0;points=[[0,0.5],[1,0.5]];portConstraint=eastwest;whiteSpace=wrap;html=1;" vertex="1" parent="UipS37Et1Q5YVo5d0hPh-1">
          <mxGeometry y="744" width="470" height="32" as="geometry" />
        </mxCell>
        <mxCell id="UipS37Et1Q5YVo5d0hPh-28" value="+ getIdleLeftAnimation() : Animation&amp;lt;TextureRegion&amp;gt;" style="text;strokeColor=none;fillColor=none;align=left;verticalAlign=top;spacingLeft=4;spacingRight=4;overflow=hidden;rotatable=0;points=[[0,0.5],[1,0.5]];portConstraint=eastwest;whiteSpace=wrap;html=1;" vertex="1" parent="UipS37Et1Q5YVo5d0hPh-1">
          <mxGeometry y="776" width="470" height="32" as="geometry" />
        </mxCell>
        <mxCell id="UipS37Et1Q5YVo5d0hPh-31" value="+ getIdleRightAnimation() : Animation&amp;lt;TextureRegion&amp;gt;" style="text;strokeColor=none;fillColor=none;align=left;verticalAlign=top;spacingLeft=4;spacingRight=4;overflow=hidden;rotatable=0;points=[[0,0.5],[1,0.5]];portConstraint=eastwest;whiteSpace=wrap;html=1;" vertex="1" parent="UipS37Et1Q5YVo5d0hPh-1">
          <mxGeometry y="808" width="470" height="32" as="geometry" />
        </mxCell>
        <mxCell id="UipS37Et1Q5YVo5d0hPh-33" value="+ getMoveLeftAnimation() : Animation&amp;lt;TextureRegion&amp;gt;" style="text;strokeColor=none;fillColor=none;align=left;verticalAlign=top;spacingLeft=4;spacingRight=4;overflow=hidden;rotatable=0;points=[[0,0.5],[1,0.5]];portConstraint=eastwest;whiteSpace=wrap;html=1;" vertex="1" parent="UipS37Et1Q5YVo5d0hPh-1">
          <mxGeometry y="840" width="470" height="32" as="geometry" />
        </mxCell>
        <mxCell id="UipS37Et1Q5YVo5d0hPh-35" value="+ getMoveRightAnimation() : Animation&amp;lt;TextureRegion&amp;gt;" style="text;strokeColor=none;fillColor=none;align=left;verticalAlign=top;spacingLeft=4;spacingRight=4;overflow=hidden;rotatable=0;points=[[0,0.5],[1,0.5]];portConstraint=eastwest;whiteSpace=wrap;html=1;" vertex="1" parent="UipS37Et1Q5YVo5d0hPh-1">
          <mxGeometry y="872" width="470" height="32" as="geometry" />
        </mxCell>
        <mxCell id="UipS37Et1Q5YVo5d0hPh-38" value="+ getAttackLeftAnimation() : Animation&amp;lt;TextureRegion&amp;gt;" style="text;strokeColor=none;fillColor=none;align=left;verticalAlign=top;spacingLeft=4;spacingRight=4;overflow=hidden;rotatable=0;points=[[0,0.5],[1,0.5]];portConstraint=eastwest;whiteSpace=wrap;html=1;" vertex="1" parent="UipS37Et1Q5YVo5d0hPh-1">
          <mxGeometry y="904" width="470" height="32" as="geometry" />
        </mxCell>
        <mxCell id="UipS37Et1Q5YVo5d0hPh-40" value="+ getAttackRightAnimation() : Animation&amp;lt;TextureRegion&amp;gt;" style="text;strokeColor=none;fillColor=none;align=left;verticalAlign=top;spacingLeft=4;spacingRight=4;overflow=hidden;rotatable=0;points=[[0,0.5],[1,0.5]];portConstraint=eastwest;whiteSpace=wrap;html=1;" vertex="1" parent="UipS37Et1Q5YVo5d0hPh-1">
          <mxGeometry y="936" width="470" height="32" as="geometry" />
        </mxCell>
        <mxCell id="UipS37Et1Q5YVo5d0hPh-42" value="+ getDieLeftAnimation() : Animation&amp;lt;TextureRegion&amp;gt;" style="text;strokeColor=none;fillColor=none;align=left;verticalAlign=top;spacingLeft=4;spacingRight=4;overflow=hidden;rotatable=0;points=[[0,0.5],[1,0.5]];portConstraint=eastwest;whiteSpace=wrap;html=1;" vertex="1" parent="UipS37Et1Q5YVo5d0hPh-1">
          <mxGeometry y="968" width="470" height="32" as="geometry" />
        </mxCell>
        <mxCell id="UipS37Et1Q5YVo5d0hPh-44" value="+ getDieRightAnimation() : Animation&amp;lt;TextureRegion&amp;gt;" style="text;strokeColor=none;fillColor=none;align=left;verticalAlign=top;spacingLeft=4;spacingRight=4;overflow=hidden;rotatable=0;points=[[0,0.5],[1,0.5]];portConstraint=eastwest;whiteSpace=wrap;html=1;" vertex="1" parent="UipS37Et1Q5YVo5d0hPh-1">
          <mxGeometry y="1000" width="470" height="32" as="geometry" />
        </mxCell>
        <mxCell id="UipS37Et1Q5YVo5d0hPh-30" value="+ setIdleLeftAnimation(Animation&amp;lt;TextureRegion&amp;gt; idleLeftAnimation) : void" style="text;strokeColor=none;fillColor=none;align=left;verticalAlign=top;spacingLeft=4;spacingRight=4;overflow=hidden;rotatable=0;points=[[0,0.5],[1,0.5]];portConstraint=eastwest;whiteSpace=wrap;html=1;" vertex="1" parent="UipS37Et1Q5YVo5d0hPh-1">
          <mxGeometry y="1032" width="470" height="32" as="geometry" />
        </mxCell>
        <mxCell id="UipS37Et1Q5YVo5d0hPh-32" value="+ setIdleRightAnimation(Animation&amp;lt;TextureRegion&amp;gt; idleRightAnimation) : void" style="text;strokeColor=none;fillColor=none;align=left;verticalAlign=top;spacingLeft=4;spacingRight=4;overflow=hidden;rotatable=0;points=[[0,0.5],[1,0.5]];portConstraint=eastwest;whiteSpace=wrap;html=1;" vertex="1" parent="UipS37Et1Q5YVo5d0hPh-1">
          <mxGeometry y="1064" width="470" height="32" as="geometry" />
        </mxCell>
        <mxCell id="UipS37Et1Q5YVo5d0hPh-34" value="+ setMoveLeftAnimation(Animation&amp;lt;TextureRegion&amp;gt; moveLeftAnimation) : void" style="text;strokeColor=none;fillColor=none;align=left;verticalAlign=top;spacingLeft=4;spacingRight=4;overflow=hidden;rotatable=0;points=[[0,0.5],[1,0.5]];portConstraint=eastwest;whiteSpace=wrap;html=1;" vertex="1" parent="UipS37Et1Q5YVo5d0hPh-1">
          <mxGeometry y="1096" width="470" height="32" as="geometry" />
        </mxCell>
        <mxCell id="UipS37Et1Q5YVo5d0hPh-36" value="+ setMoveRightAnimation(Animation&amp;lt;TextureRegion&amp;gt; moveRightAnimation) : void" style="text;strokeColor=none;fillColor=none;align=left;verticalAlign=top;spacingLeft=4;spacingRight=4;overflow=hidden;rotatable=0;points=[[0,0.5],[1,0.5]];portConstraint=eastwest;whiteSpace=wrap;html=1;" vertex="1" parent="UipS37Et1Q5YVo5d0hPh-1">
          <mxGeometry y="1128" width="470" height="32" as="geometry" />
        </mxCell>
        <mxCell id="UipS37Et1Q5YVo5d0hPh-37" value="+ setMoveRightAnimation(Animation&amp;lt;TextureRegion&amp;gt; moveRightAnimation) : void" style="text;strokeColor=none;fillColor=none;align=left;verticalAlign=top;spacingLeft=4;spacingRight=4;overflow=hidden;rotatable=0;points=[[0,0.5],[1,0.5]];portConstraint=eastwest;whiteSpace=wrap;html=1;" vertex="1" parent="UipS37Et1Q5YVo5d0hPh-1">
          <mxGeometry y="1160" width="470" height="32" as="geometry" />
        </mxCell>
        <mxCell id="UipS37Et1Q5YVo5d0hPh-39" value="+ setAttackLeftAnimation(Animation&amp;lt;TextureRegion&amp;gt; AttackLeftAnimation) : void" style="text;strokeColor=none;fillColor=none;align=left;verticalAlign=top;spacingLeft=4;spacingRight=4;overflow=hidden;rotatable=0;points=[[0,0.5],[1,0.5]];portConstraint=eastwest;whiteSpace=wrap;html=1;" vertex="1" parent="UipS37Et1Q5YVo5d0hPh-1">
          <mxGeometry y="1192" width="470" height="32" as="geometry" />
        </mxCell>
        <mxCell id="UipS37Et1Q5YVo5d0hPh-41" value="+ setAttackRightAnimation(Animation&amp;lt;TextureRegion&amp;gt; AttackRightAnimation) : void" style="text;strokeColor=none;fillColor=none;align=left;verticalAlign=top;spacingLeft=4;spacingRight=4;overflow=hidden;rotatable=0;points=[[0,0.5],[1,0.5]];portConstraint=eastwest;whiteSpace=wrap;html=1;" vertex="1" parent="UipS37Et1Q5YVo5d0hPh-1">
          <mxGeometry y="1224" width="470" height="32" as="geometry" />
        </mxCell>
        <mxCell id="UipS37Et1Q5YVo5d0hPh-43" value="+ setDieLeftAnimation(Animation&amp;lt;TextureRegion&amp;gt; dieLeftAnimation) : void" style="text;strokeColor=none;fillColor=none;align=left;verticalAlign=top;spacingLeft=4;spacingRight=4;overflow=hidden;rotatable=0;points=[[0,0.5],[1,0.5]];portConstraint=eastwest;whiteSpace=wrap;html=1;" vertex="1" parent="UipS37Et1Q5YVo5d0hPh-1">
          <mxGeometry y="1256" width="470" height="32" as="geometry" />
        </mxCell>
        <mxCell id="UipS37Et1Q5YVo5d0hPh-45" value="+ setDieRightAnimation(Animation&amp;lt;TextureRegion&amp;gt; dieRightAnimation) : void" style="text;strokeColor=none;fillColor=none;align=left;verticalAlign=top;spacingLeft=4;spacingRight=4;overflow=hidden;rotatable=0;points=[[0,0.5],[1,0.5]];portConstraint=eastwest;whiteSpace=wrap;html=1;" vertex="1" parent="UipS37Et1Q5YVo5d0hPh-1">
          <mxGeometry y="1288" width="470" height="32" as="geometry" />
        </mxCell>
        <mxCell id="UipS37Et1Q5YVo5d0hPh-46" value="+ getStateTime() : float" style="text;strokeColor=none;fillColor=none;align=left;verticalAlign=top;spacingLeft=4;spacingRight=4;overflow=hidden;rotatable=0;points=[[0,0.5],[1,0.5]];portConstraint=eastwest;whiteSpace=wrap;html=1;" vertex="1" parent="UipS37Et1Q5YVo5d0hPh-1">
          <mxGeometry y="1320" width="470" height="32" as="geometry" />
        </mxCell>
        <mxCell id="UipS37Et1Q5YVo5d0hPh-47" value="+ setStateTime(stateTime : float) : void" style="text;strokeColor=none;fillColor=none;align=left;verticalAlign=top;spacingLeft=4;spacingRight=4;overflow=hidden;rotatable=0;points=[[0,0.5],[1,0.5]];portConstraint=eastwest;whiteSpace=wrap;html=1;" vertex="1" parent="UipS37Et1Q5YVo5d0hPh-1">
          <mxGeometry y="1352" width="470" height="32" as="geometry" />
        </mxCell>
        <mxCell id="UipS37Et1Q5YVo5d0hPh-48" value="+ getState() : State" style="text;strokeColor=none;fillColor=none;align=left;verticalAlign=top;spacingLeft=4;spacingRight=4;overflow=hidden;rotatable=0;points=[[0,0.5],[1,0.5]];portConstraint=eastwest;whiteSpace=wrap;html=1;" vertex="1" parent="UipS37Et1Q5YVo5d0hPh-1">
          <mxGeometry y="1384" width="470" height="32" as="geometry" />
        </mxCell>
        <mxCell id="UipS37Et1Q5YVo5d0hPh-49" value="+ setState(state : State) : void" style="text;strokeColor=none;fillColor=none;align=left;verticalAlign=top;spacingLeft=4;spacingRight=4;overflow=hidden;rotatable=0;points=[[0,0.5],[1,0.5]];portConstraint=eastwest;whiteSpace=wrap;html=1;" vertex="1" parent="UipS37Et1Q5YVo5d0hPh-1">
          <mxGeometry y="1416" width="470" height="32" as="geometry" />
        </mxCell>
        <mxCell id="UipS37Et1Q5YVo5d0hPh-50" value="+ getAnimationDirection() : Direction" style="text;strokeColor=none;fillColor=none;align=left;verticalAlign=top;spacingLeft=4;spacingRight=4;overflow=hidden;rotatable=0;points=[[0,0.5],[1,0.5]];portConstraint=eastwest;whiteSpace=wrap;html=1;" vertex="1" parent="UipS37Et1Q5YVo5d0hPh-1">
          <mxGeometry y="1448" width="470" height="32" as="geometry" />
        </mxCell>
        <mxCell id="UipS37Et1Q5YVo5d0hPh-51" value="+ setAnimationDirection(animationDirection : Direction) : void" style="text;strokeColor=none;fillColor=none;align=left;verticalAlign=top;spacingLeft=4;spacingRight=4;overflow=hidden;rotatable=0;points=[[0,0.5],[1,0.5]];portConstraint=eastwest;whiteSpace=wrap;html=1;" vertex="1" parent="UipS37Et1Q5YVo5d0hPh-1">
          <mxGeometry y="1480" width="470" height="32" as="geometry" />
        </mxCell>
        <mxCell id="Qi_TZ8nRlaXqWhGWmoXV-28" value="Sword" style="swimlane;fontStyle=1;align=center;verticalAlign=top;childLayout=stackLayout;horizontal=1;startSize=26;horizontalStack=0;resizeParent=1;resizeParentMax=0;resizeLast=0;collapsible=1;marginBottom=0;whiteSpace=wrap;html=1;" vertex="1" parent="1">
          <mxGeometry x="-70" y="1168" width="390" height="112" as="geometry" />
        </mxCell>
        <mxCell id="Qi_TZ8nRlaXqWhGWmoXV-30" value="&amp;nbsp;&lt;br&gt;" style="text;strokeColor=none;fillColor=none;align=left;verticalAlign=top;spacingLeft=4;spacingRight=4;overflow=hidden;rotatable=0;points=[[0,0.5],[1,0.5]];portConstraint=eastwest;whiteSpace=wrap;html=1;" vertex="1" parent="Qi_TZ8nRlaXqWhGWmoXV-28">
          <mxGeometry y="26" width="390" height="26" as="geometry" />
        </mxCell>
        <mxCell id="Qi_TZ8nRlaXqWhGWmoXV-34" value="" style="line;strokeWidth=1;fillColor=none;align=left;verticalAlign=middle;spacingTop=-1;spacingLeft=3;spacingRight=3;rotatable=0;labelPosition=right;points=[];portConstraint=eastwest;strokeColor=inherit;" vertex="1" parent="Qi_TZ8nRlaXqWhGWmoXV-28">
          <mxGeometry y="52" width="390" height="8" as="geometry" />
        </mxCell>
        <mxCell id="Qi_TZ8nRlaXqWhGWmoXV-35" value="+ Sword()&amp;nbsp;" style="text;strokeColor=none;fillColor=none;align=left;verticalAlign=top;spacingLeft=4;spacingRight=4;overflow=hidden;rotatable=0;points=[[0,0.5],[1,0.5]];portConstraint=eastwest;whiteSpace=wrap;html=1;" vertex="1" parent="Qi_TZ8nRlaXqWhGWmoXV-28">
          <mxGeometry y="60" width="390" height="26" as="geometry" />
        </mxCell>
        <mxCell id="Qi_TZ8nRlaXqWhGWmoXV-36" value="+ generateSwordAnimation() : void" style="text;strokeColor=none;fillColor=none;align=left;verticalAlign=top;spacingLeft=4;spacingRight=4;overflow=hidden;rotatable=0;points=[[0,0.5],[1,0.5]];portConstraint=eastwest;whiteSpace=wrap;html=1;" vertex="1" parent="Qi_TZ8nRlaXqWhGWmoXV-28">
          <mxGeometry y="86" width="390" height="26" as="geometry" />
        </mxCell>
        <mxCell id="Qi_TZ8nRlaXqWhGWmoXV-39" value="Magic" style="swimlane;fontStyle=1;align=center;verticalAlign=top;childLayout=stackLayout;horizontal=1;startSize=26;horizontalStack=0;resizeParent=1;resizeParentMax=0;resizeLast=0;collapsible=1;marginBottom=0;whiteSpace=wrap;html=1;" vertex="1" parent="1">
          <mxGeometry x="400" y="1182" width="390" height="112" as="geometry" />
        </mxCell>
        <mxCell id="Qi_TZ8nRlaXqWhGWmoXV-40" value="&amp;nbsp;&lt;br&gt;" style="text;strokeColor=none;fillColor=none;align=left;verticalAlign=top;spacingLeft=4;spacingRight=4;overflow=hidden;rotatable=0;points=[[0,0.5],[1,0.5]];portConstraint=eastwest;whiteSpace=wrap;html=1;" vertex="1" parent="Qi_TZ8nRlaXqWhGWmoXV-39">
          <mxGeometry y="26" width="390" height="26" as="geometry" />
        </mxCell>
        <mxCell id="Qi_TZ8nRlaXqWhGWmoXV-41" value="" style="line;strokeWidth=1;fillColor=none;align=left;verticalAlign=middle;spacingTop=-1;spacingLeft=3;spacingRight=3;rotatable=0;labelPosition=right;points=[];portConstraint=eastwest;strokeColor=inherit;" vertex="1" parent="Qi_TZ8nRlaXqWhGWmoXV-39">
          <mxGeometry y="52" width="390" height="8" as="geometry" />
        </mxCell>
        <mxCell id="Qi_TZ8nRlaXqWhGWmoXV-42" value="+ Magic()&amp;nbsp;" style="text;strokeColor=none;fillColor=none;align=left;verticalAlign=top;spacingLeft=4;spacingRight=4;overflow=hidden;rotatable=0;points=[[0,0.5],[1,0.5]];portConstraint=eastwest;whiteSpace=wrap;html=1;" vertex="1" parent="Qi_TZ8nRlaXqWhGWmoXV-39">
          <mxGeometry y="60" width="390" height="26" as="geometry" />
        </mxCell>
        <mxCell id="Qi_TZ8nRlaXqWhGWmoXV-43" value="+ generateMagicAnimation() : void" style="text;strokeColor=none;fillColor=none;align=left;verticalAlign=top;spacingLeft=4;spacingRight=4;overflow=hidden;rotatable=0;points=[[0,0.5],[1,0.5]];portConstraint=eastwest;whiteSpace=wrap;html=1;" vertex="1" parent="Qi_TZ8nRlaXqWhGWmoXV-39">
          <mxGeometry y="86" width="390" height="26" as="geometry" />
        </mxCell>
        <mxCell id="Qi_TZ8nRlaXqWhGWmoXV-44" value="Bow" style="swimlane;fontStyle=1;align=center;verticalAlign=top;childLayout=stackLayout;horizontal=1;startSize=26;horizontalStack=0;resizeParent=1;resizeParentMax=0;resizeLast=0;collapsible=1;marginBottom=0;whiteSpace=wrap;html=1;" vertex="1" parent="1">
          <mxGeometry x="180" y="1370" width="390" height="112" as="geometry" />
        </mxCell>
        <mxCell id="Qi_TZ8nRlaXqWhGWmoXV-45" value="&amp;nbsp;&lt;br&gt;" style="text;strokeColor=none;fillColor=none;align=left;verticalAlign=top;spacingLeft=4;spacingRight=4;overflow=hidden;rotatable=0;points=[[0,0.5],[1,0.5]];portConstraint=eastwest;whiteSpace=wrap;html=1;" vertex="1" parent="Qi_TZ8nRlaXqWhGWmoXV-44">
          <mxGeometry y="26" width="390" height="26" as="geometry" />
        </mxCell>
        <mxCell id="Qi_TZ8nRlaXqWhGWmoXV-46" value="" style="line;strokeWidth=1;fillColor=none;align=left;verticalAlign=middle;spacingTop=-1;spacingLeft=3;spacingRight=3;rotatable=0;labelPosition=right;points=[];portConstraint=eastwest;strokeColor=inherit;" vertex="1" parent="Qi_TZ8nRlaXqWhGWmoXV-44">
          <mxGeometry y="52" width="390" height="8" as="geometry" />
        </mxCell>
        <mxCell id="Qi_TZ8nRlaXqWhGWmoXV-47" value="+ Bow()&amp;nbsp;" style="text;strokeColor=none;fillColor=none;align=left;verticalAlign=top;spacingLeft=4;spacingRight=4;overflow=hidden;rotatable=0;points=[[0,0.5],[1,0.5]];portConstraint=eastwest;whiteSpace=wrap;html=1;" vertex="1" parent="Qi_TZ8nRlaXqWhGWmoXV-44">
          <mxGeometry y="60" width="390" height="26" as="geometry" />
        </mxCell>
        <mxCell id="Qi_TZ8nRlaXqWhGWmoXV-48" value="+ generateBowAnimation() : void" style="text;strokeColor=none;fillColor=none;align=left;verticalAlign=top;spacingLeft=4;spacingRight=4;overflow=hidden;rotatable=0;points=[[0,0.5],[1,0.5]];portConstraint=eastwest;whiteSpace=wrap;html=1;" vertex="1" parent="Qi_TZ8nRlaXqWhGWmoXV-44">
          <mxGeometry y="86" width="390" height="26" as="geometry" />
        </mxCell>
        <mxCell id="Qi_TZ8nRlaXqWhGWmoXV-53" value="AttackParticle" style="swimlane;fontStyle=1;align=center;verticalAlign=top;childLayout=stackLayout;horizontal=1;startSize=26;horizontalStack=0;resizeParent=1;resizeParentMax=0;resizeLast=0;collapsible=1;marginBottom=0;whiteSpace=wrap;html=1;" vertex="1" parent="1">
          <mxGeometry x="-450" y="60" width="390" height="684" as="geometry" />
        </mxCell>
        <mxCell id="Qi_TZ8nRlaXqWhGWmoXV-54" value="# originPosition : Vector2&lt;br&gt;" style="text;strokeColor=none;fillColor=none;align=left;verticalAlign=top;spacingLeft=4;spacingRight=4;overflow=hidden;rotatable=0;points=[[0,0.5],[1,0.5]];portConstraint=eastwest;whiteSpace=wrap;html=1;" vertex="1" parent="Qi_TZ8nRlaXqWhGWmoXV-53">
          <mxGeometry y="26" width="390" height="26" as="geometry" />
        </mxCell>
        <mxCell id="Qi_TZ8nRlaXqWhGWmoXV-61" value="# Position : Vector2" style="text;strokeColor=none;fillColor=none;align=left;verticalAlign=top;spacingLeft=4;spacingRight=4;overflow=hidden;rotatable=0;points=[[0,0.5],[1,0.5]];portConstraint=eastwest;whiteSpace=wrap;html=1;" vertex="1" parent="Qi_TZ8nRlaXqWhGWmoXV-53">
          <mxGeometry y="52" width="390" height="26" as="geometry" />
        </mxCell>
        <mxCell id="Qi_TZ8nRlaXqWhGWmoXV-62" value="# movement : Vector2" style="text;strokeColor=none;fillColor=none;align=left;verticalAlign=top;spacingLeft=4;spacingRight=4;overflow=hidden;rotatable=0;points=[[0,0.5],[1,0.5]];portConstraint=eastwest;whiteSpace=wrap;html=1;" vertex="1" parent="Qi_TZ8nRlaXqWhGWmoXV-53">
          <mxGeometry y="78" width="390" height="26" as="geometry" />
        </mxCell>
        <mxCell id="Qi_TZ8nRlaXqWhGWmoXV-63" value="# maxRadius : float" style="text;strokeColor=none;fillColor=none;align=left;verticalAlign=top;spacingLeft=4;spacingRight=4;overflow=hidden;rotatable=0;points=[[0,0.5],[1,0.5]];portConstraint=eastwest;whiteSpace=wrap;html=1;" vertex="1" parent="Qi_TZ8nRlaXqWhGWmoXV-53">
          <mxGeometry y="104" width="390" height="26" as="geometry" />
        </mxCell>
        <mxCell id="Qi_TZ8nRlaXqWhGWmoXV-64" value="# speed : float" style="text;strokeColor=none;fillColor=none;align=left;verticalAlign=top;spacingLeft=4;spacingRight=4;overflow=hidden;rotatable=0;points=[[0,0.5],[1,0.5]];portConstraint=eastwest;whiteSpace=wrap;html=1;" vertex="1" parent="Qi_TZ8nRlaXqWhGWmoXV-53">
          <mxGeometry y="130" width="390" height="26" as="geometry" />
        </mxCell>
        <mxCell id="Qi_TZ8nRlaXqWhGWmoXV-65" value="# damage : float" style="text;strokeColor=none;fillColor=none;align=left;verticalAlign=top;spacingLeft=4;spacingRight=4;overflow=hidden;rotatable=0;points=[[0,0.5],[1,0.5]];portConstraint=eastwest;whiteSpace=wrap;html=1;" vertex="1" parent="Qi_TZ8nRlaXqWhGWmoXV-53">
          <mxGeometry y="156" width="390" height="26" as="geometry" />
        </mxCell>
        <mxCell id="Qi_TZ8nRlaXqWhGWmoXV-60" value="# stateTime: float" style="text;strokeColor=none;fillColor=none;align=left;verticalAlign=top;spacingLeft=4;spacingRight=4;overflow=hidden;rotatable=0;points=[[0,0.5],[1,0.5]];portConstraint=eastwest;whiteSpace=wrap;html=1;" vertex="1" parent="Qi_TZ8nRlaXqWhGWmoXV-53">
          <mxGeometry y="182" width="390" height="26" as="geometry" />
        </mxCell>
        <mxCell id="Qi_TZ8nRlaXqWhGWmoXV-66" value="# animation: Animation&amp;lt;TextureRegion&amp;gt;" style="text;strokeColor=none;fillColor=none;align=left;verticalAlign=top;spacingLeft=4;spacingRight=4;overflow=hidden;rotatable=0;points=[[0,0.5],[1,0.5]];portConstraint=eastwest;whiteSpace=wrap;html=1;" vertex="1" parent="Qi_TZ8nRlaXqWhGWmoXV-53">
          <mxGeometry y="208" width="390" height="26" as="geometry" />
        </mxCell>
        <mxCell id="Qi_TZ8nRlaXqWhGWmoXV-55" value="" style="line;strokeWidth=1;fillColor=none;align=left;verticalAlign=middle;spacingTop=-1;spacingLeft=3;spacingRight=3;rotatable=0;labelPosition=right;points=[];portConstraint=eastwest;strokeColor=inherit;" vertex="1" parent="Qi_TZ8nRlaXqWhGWmoXV-53">
          <mxGeometry y="234" width="390" height="8" as="geometry" />
        </mxCell>
        <mxCell id="Qi_TZ8nRlaXqWhGWmoXV-56" value="+ AttackParticle()&amp;nbsp;" style="text;strokeColor=none;fillColor=none;align=left;verticalAlign=top;spacingLeft=4;spacingRight=4;overflow=hidden;rotatable=0;points=[[0,0.5],[1,0.5]];portConstraint=eastwest;whiteSpace=wrap;html=1;" vertex="1" parent="Qi_TZ8nRlaXqWhGWmoXV-53">
          <mxGeometry y="242" width="390" height="26" as="geometry" />
        </mxCell>
        <mxCell id="Qi_TZ8nRlaXqWhGWmoXV-57" value="+ isOutOfRange() : boolean" style="text;strokeColor=none;fillColor=none;align=left;verticalAlign=top;spacingLeft=4;spacingRight=4;overflow=hidden;rotatable=0;points=[[0,0.5],[1,0.5]];portConstraint=eastwest;whiteSpace=wrap;html=1;" vertex="1" parent="Qi_TZ8nRlaXqWhGWmoXV-53">
          <mxGeometry y="268" width="390" height="26" as="geometry" />
        </mxCell>
        <mxCell id="Qi_TZ8nRlaXqWhGWmoXV-81" value="+ hit(vector2 : Vector2) : boolean" style="text;strokeColor=none;fillColor=none;align=left;verticalAlign=top;spacingLeft=4;spacingRight=4;overflow=hidden;rotatable=0;points=[[0,0.5],[1,0.5]];portConstraint=eastwest;whiteSpace=wrap;html=1;" vertex="1" parent="Qi_TZ8nRlaXqWhGWmoXV-53">
          <mxGeometry y="294" width="390" height="26" as="geometry" />
        </mxCell>
        <mxCell id="Qi_TZ8nRlaXqWhGWmoXV-67" value="+ getOriginPosition() : Vector2" style="text;strokeColor=none;fillColor=none;align=left;verticalAlign=top;spacingLeft=4;spacingRight=4;overflow=hidden;rotatable=0;points=[[0,0.5],[1,0.5]];portConstraint=eastwest;whiteSpace=wrap;html=1;" vertex="1" parent="Qi_TZ8nRlaXqWhGWmoXV-53">
          <mxGeometry y="320" width="390" height="26" as="geometry" />
        </mxCell>
        <mxCell id="Qi_TZ8nRlaXqWhGWmoXV-68" value="+ setOriginPosition(originPosition : Vector2)&amp;nbsp; : void" style="text;strokeColor=none;fillColor=none;align=left;verticalAlign=top;spacingLeft=4;spacingRight=4;overflow=hidden;rotatable=0;points=[[0,0.5],[1,0.5]];portConstraint=eastwest;whiteSpace=wrap;html=1;" vertex="1" parent="Qi_TZ8nRlaXqWhGWmoXV-53">
          <mxGeometry y="346" width="390" height="26" as="geometry" />
        </mxCell>
        <mxCell id="Qi_TZ8nRlaXqWhGWmoXV-69" value="+ getPosition() : Vector2" style="text;strokeColor=none;fillColor=none;align=left;verticalAlign=top;spacingLeft=4;spacingRight=4;overflow=hidden;rotatable=0;points=[[0,0.5],[1,0.5]];portConstraint=eastwest;whiteSpace=wrap;html=1;" vertex="1" parent="Qi_TZ8nRlaXqWhGWmoXV-53">
          <mxGeometry y="372" width="390" height="26" as="geometry" />
        </mxCell>
        <mxCell id="Qi_TZ8nRlaXqWhGWmoXV-70" value="+ setPosition(position : Vector2) : void" style="text;strokeColor=none;fillColor=none;align=left;verticalAlign=top;spacingLeft=4;spacingRight=4;overflow=hidden;rotatable=0;points=[[0,0.5],[1,0.5]];portConstraint=eastwest;whiteSpace=wrap;html=1;" vertex="1" parent="Qi_TZ8nRlaXqWhGWmoXV-53">
          <mxGeometry y="398" width="390" height="26" as="geometry" />
        </mxCell>
        <mxCell id="Qi_TZ8nRlaXqWhGWmoXV-71" value="+ getMovement() : Vector2" style="text;strokeColor=none;fillColor=none;align=left;verticalAlign=top;spacingLeft=4;spacingRight=4;overflow=hidden;rotatable=0;points=[[0,0.5],[1,0.5]];portConstraint=eastwest;whiteSpace=wrap;html=1;" vertex="1" parent="Qi_TZ8nRlaXqWhGWmoXV-53">
          <mxGeometry y="424" width="390" height="26" as="geometry" />
        </mxCell>
        <mxCell id="Qi_TZ8nRlaXqWhGWmoXV-72" value="+ setMovement(movement : Vector2) : void" style="text;strokeColor=none;fillColor=none;align=left;verticalAlign=top;spacingLeft=4;spacingRight=4;overflow=hidden;rotatable=0;points=[[0,0.5],[1,0.5]];portConstraint=eastwest;whiteSpace=wrap;html=1;" vertex="1" parent="Qi_TZ8nRlaXqWhGWmoXV-53">
          <mxGeometry y="450" width="390" height="26" as="geometry" />
        </mxCell>
        <mxCell id="Qi_TZ8nRlaXqWhGWmoXV-73" value="+ getMaxRadius() : float" style="text;strokeColor=none;fillColor=none;align=left;verticalAlign=top;spacingLeft=4;spacingRight=4;overflow=hidden;rotatable=0;points=[[0,0.5],[1,0.5]];portConstraint=eastwest;whiteSpace=wrap;html=1;" vertex="1" parent="Qi_TZ8nRlaXqWhGWmoXV-53">
          <mxGeometry y="476" width="390" height="26" as="geometry" />
        </mxCell>
        <mxCell id="Qi_TZ8nRlaXqWhGWmoXV-76" value="+ setMaxRadius(maxRadiu : float) : void" style="text;strokeColor=none;fillColor=none;align=left;verticalAlign=top;spacingLeft=4;spacingRight=4;overflow=hidden;rotatable=0;points=[[0,0.5],[1,0.5]];portConstraint=eastwest;whiteSpace=wrap;html=1;" vertex="1" parent="Qi_TZ8nRlaXqWhGWmoXV-53">
          <mxGeometry y="502" width="390" height="26" as="geometry" />
        </mxCell>
        <mxCell id="Qi_TZ8nRlaXqWhGWmoXV-75" value="+ getSpeed() : float" style="text;strokeColor=none;fillColor=none;align=left;verticalAlign=top;spacingLeft=4;spacingRight=4;overflow=hidden;rotatable=0;points=[[0,0.5],[1,0.5]];portConstraint=eastwest;whiteSpace=wrap;html=1;" vertex="1" parent="Qi_TZ8nRlaXqWhGWmoXV-53">
          <mxGeometry y="528" width="390" height="26" as="geometry" />
        </mxCell>
        <mxCell id="Qi_TZ8nRlaXqWhGWmoXV-74" value="+ setSpeed(speed : float) : void" style="text;strokeColor=none;fillColor=none;align=left;verticalAlign=top;spacingLeft=4;spacingRight=4;overflow=hidden;rotatable=0;points=[[0,0.5],[1,0.5]];portConstraint=eastwest;whiteSpace=wrap;html=1;" vertex="1" parent="Qi_TZ8nRlaXqWhGWmoXV-53">
          <mxGeometry y="554" width="390" height="26" as="geometry" />
        </mxCell>
        <mxCell id="Qi_TZ8nRlaXqWhGWmoXV-77" value="+ getDamage() : float" style="text;strokeColor=none;fillColor=none;align=left;verticalAlign=top;spacingLeft=4;spacingRight=4;overflow=hidden;rotatable=0;points=[[0,0.5],[1,0.5]];portConstraint=eastwest;whiteSpace=wrap;html=1;" vertex="1" parent="Qi_TZ8nRlaXqWhGWmoXV-53">
          <mxGeometry y="580" width="390" height="26" as="geometry" />
        </mxCell>
        <mxCell id="Qi_TZ8nRlaXqWhGWmoXV-78" value="+ setDamage(damaage : float) : void" style="text;strokeColor=none;fillColor=none;align=left;verticalAlign=top;spacingLeft=4;spacingRight=4;overflow=hidden;rotatable=0;points=[[0,0.5],[1,0.5]];portConstraint=eastwest;whiteSpace=wrap;html=1;" vertex="1" parent="Qi_TZ8nRlaXqWhGWmoXV-53">
          <mxGeometry y="606" width="390" height="26" as="geometry" />
        </mxCell>
        <mxCell id="Qi_TZ8nRlaXqWhGWmoXV-79" value="+ getAnimation() : Animation&amp;lt;TextureRegion&amp;gt;" style="text;strokeColor=none;fillColor=none;align=left;verticalAlign=top;spacingLeft=4;spacingRight=4;overflow=hidden;rotatable=0;points=[[0,0.5],[1,0.5]];portConstraint=eastwest;whiteSpace=wrap;html=1;" vertex="1" parent="Qi_TZ8nRlaXqWhGWmoXV-53">
          <mxGeometry y="632" width="390" height="26" as="geometry" />
        </mxCell>
        <mxCell id="Qi_TZ8nRlaXqWhGWmoXV-80" value="+ setAnimation(animation: Animation&amp;lt;TextureRegion&amp;gt;)&amp;nbsp; : void&amp;nbsp;" style="text;strokeColor=none;fillColor=none;align=left;verticalAlign=top;spacingLeft=4;spacingRight=4;overflow=hidden;rotatable=0;points=[[0,0.5],[1,0.5]];portConstraint=eastwest;whiteSpace=wrap;html=1;" vertex="1" parent="Qi_TZ8nRlaXqWhGWmoXV-53">
          <mxGeometry y="658" width="390" height="26" as="geometry" />
        </mxCell>
        <mxCell id="UipS37Et1Q5YVo5d0hPh-52" value="Monster" style="swimlane;fontStyle=1;align=center;verticalAlign=top;childLayout=stackLayout;horizontal=1;startSize=26;horizontalStack=0;resizeParent=1;resizeParentMax=0;resizeLast=0;collapsible=1;marginBottom=0;whiteSpace=wrap;html=1;" vertex="1" parent="1">
          <mxGeometry x="280" y="240" width="320" height="108" as="geometry" />
        </mxCell>
        <mxCell id="UipS37Et1Q5YVo5d0hPh-53" value="damage : float" style="text;strokeColor=none;fillColor=none;align=left;verticalAlign=top;spacingLeft=4;spacingRight=4;overflow=hidden;rotatable=0;points=[[0,0.5],[1,0.5]];portConstraint=eastwest;whiteSpace=wrap;html=1;" vertex="1" parent="UipS37Et1Q5YVo5d0hPh-52">
          <mxGeometry y="26" width="320" height="26" as="geometry" />
        </mxCell>
        <mxCell id="UipS37Et1Q5YVo5d0hPh-56" value="# projectileLeftAnimation : Animation&amp;lt;TextureRegion&amp;gt;" style="text;strokeColor=none;fillColor=none;align=left;verticalAlign=top;spacingLeft=4;spacingRight=4;overflow=hidden;rotatable=0;points=[[0,0.5],[1,0.5]];portConstraint=eastwest;whiteSpace=wrap;html=1;" vertex="1" parent="UipS37Et1Q5YVo5d0hPh-52">
          <mxGeometry y="52" width="320" height="26" as="geometry" />
        </mxCell>
        <mxCell id="UipS37Et1Q5YVo5d0hPh-57" value="# projectileRightAnimation : Animation&amp;lt;TextureRegion&amp;gt;" style="text;strokeColor=none;fillColor=none;align=left;verticalAlign=top;spacingLeft=4;spacingRight=4;overflow=hidden;rotatable=0;points=[[0,0.5],[1,0.5]];portConstraint=eastwest;whiteSpace=wrap;html=1;" vertex="1" parent="UipS37Et1Q5YVo5d0hPh-52">
          <mxGeometry y="78" width="320" height="26" as="geometry" />
        </mxCell>
        <mxCell id="UipS37Et1Q5YVo5d0hPh-54" value="-" style="line;strokeWidth=1;fillColor=none;align=left;verticalAlign=middle;spacingTop=-1;spacingLeft=3;spacingRight=3;rotatable=0;labelPosition=right;points=[];portConstraint=eastwest;strokeColor=inherit;" vertex="1" parent="UipS37Et1Q5YVo5d0hPh-52">
          <mxGeometry y="104" width="320" height="4" as="geometry" />
        </mxCell>
        <mxCell id="UipS37Et1Q5YVo5d0hPh-58" value="&lt;i&gt;&amp;lt;&amp;lt;Interface&amp;gt;&amp;gt;&lt;/i&gt; CanAttack" style="swimlane;fontStyle=1;align=center;verticalAlign=top;childLayout=stackLayout;horizontal=1;startSize=26;horizontalStack=0;resizeParent=1;resizeParentMax=0;resizeLast=0;collapsible=1;marginBottom=0;whiteSpace=wrap;html=1;" vertex="1" parent="1">
          <mxGeometry x="800" y="10" width="320" height="86" as="geometry" />
        </mxCell>
        <mxCell id="UipS37Et1Q5YVo5d0hPh-60" value="" style="line;strokeWidth=1;fillColor=none;align=left;verticalAlign=middle;spacingTop=-1;spacingLeft=3;spacingRight=3;rotatable=0;labelPosition=right;points=[];portConstraint=eastwest;strokeColor=inherit;" vertex="1" parent="UipS37Et1Q5YVo5d0hPh-58">
          <mxGeometry y="26" width="320" height="8" as="geometry" />
        </mxCell>
        <mxCell id="UipS37Et1Q5YVo5d0hPh-61" value="attack : AttackParicle" style="text;strokeColor=none;fillColor=none;align=left;verticalAlign=top;spacingLeft=4;spacingRight=4;overflow=hidden;rotatable=0;points=[[0,0.5],[1,0.5]];portConstraint=eastwest;whiteSpace=wrap;html=1;" vertex="1" parent="UipS37Et1Q5YVo5d0hPh-58">
          <mxGeometry y="34" width="320" height="26" as="geometry" />
        </mxCell>
        <mxCell id="UipS37Et1Q5YVo5d0hPh-62" value="getAttackAnimationTime() : float" style="text;strokeColor=none;fillColor=none;align=left;verticalAlign=top;spacingLeft=4;spacingRight=4;overflow=hidden;rotatable=0;points=[[0,0.5],[1,0.5]];portConstraint=eastwest;whiteSpace=wrap;html=1;" vertex="1" parent="UipS37Et1Q5YVo5d0hPh-58">
          <mxGeometry y="60" width="320" height="26" as="geometry" />
        </mxCell>
        <mxCell id="UipS37Et1Q5YVo5d0hPh-63" value="&lt;i&gt;&amp;lt;&amp;lt;Interface&amp;gt;&amp;gt;&lt;/i&gt;&amp;nbsp;Damageable" style="swimlane;fontStyle=1;align=center;verticalAlign=top;childLayout=stackLayout;horizontal=1;startSize=26;horizontalStack=0;resizeParent=1;resizeParentMax=0;resizeLast=0;collapsible=1;marginBottom=0;whiteSpace=wrap;html=1;" vertex="1" parent="1">
          <mxGeometry x="450" y="10" width="320" height="86" as="geometry" />
        </mxCell>
        <mxCell id="UipS37Et1Q5YVo5d0hPh-64" value="" style="line;strokeWidth=1;fillColor=none;align=left;verticalAlign=middle;spacingTop=-1;spacingLeft=3;spacingRight=3;rotatable=0;labelPosition=right;points=[];portConstraint=eastwest;strokeColor=inherit;" vertex="1" parent="UipS37Et1Q5YVo5d0hPh-63">
          <mxGeometry y="26" width="320" height="8" as="geometry" />
        </mxCell>
        <mxCell id="UipS37Et1Q5YVo5d0hPh-65" value="takeDamage(damage : floate) : void" style="text;strokeColor=none;fillColor=none;align=left;verticalAlign=top;spacingLeft=4;spacingRight=4;overflow=hidden;rotatable=0;points=[[0,0.5],[1,0.5]];portConstraint=eastwest;whiteSpace=wrap;html=1;" vertex="1" parent="UipS37Et1Q5YVo5d0hPh-63">
          <mxGeometry y="34" width="320" height="26" as="geometry" />
        </mxCell>
        <mxCell id="UipS37Et1Q5YVo5d0hPh-66" value="die() : void" style="text;strokeColor=none;fillColor=none;align=left;verticalAlign=top;spacingLeft=4;spacingRight=4;overflow=hidden;rotatable=0;points=[[0,0.5],[1,0.5]];portConstraint=eastwest;whiteSpace=wrap;html=1;" vertex="1" parent="UipS37Et1Q5YVo5d0hPh-63">
          <mxGeometry y="60" width="320" height="26" as="geometry" />
        </mxCell>
        <mxCell id="UipS37Et1Q5YVo5d0hPh-67" value="&lt;i&gt;&amp;lt;&amp;lt;Interface&amp;gt;&amp;gt;&lt;/i&gt;&amp;nbsp;Drawable" style="swimlane;fontStyle=1;align=center;verticalAlign=top;childLayout=stackLayout;horizontal=1;startSize=26;horizontalStack=0;resizeParent=1;resizeParentMax=0;resizeLast=0;collapsible=1;marginBottom=0;whiteSpace=wrap;html=1;" vertex="1" parent="1">
          <mxGeometry x="80" y="10" width="320" height="60" as="geometry" />
        </mxCell>
        <mxCell id="UipS37Et1Q5YVo5d0hPh-68" value="" style="line;strokeWidth=1;fillColor=none;align=left;verticalAlign=middle;spacingTop=-1;spacingLeft=3;spacingRight=3;rotatable=0;labelPosition=right;points=[];portConstraint=eastwest;strokeColor=inherit;" vertex="1" parent="UipS37Et1Q5YVo5d0hPh-67">
          <mxGeometry y="26" width="320" height="8" as="geometry" />
        </mxCell>
        <mxCell id="UipS37Et1Q5YVo5d0hPh-69" value="draw(batch : SpriteBatch) : void" style="text;strokeColor=none;fillColor=none;align=left;verticalAlign=top;spacingLeft=4;spacingRight=4;overflow=hidden;rotatable=0;points=[[0,0.5],[1,0.5]];portConstraint=eastwest;whiteSpace=wrap;html=1;" vertex="1" parent="UipS37Et1Q5YVo5d0hPh-67">
          <mxGeometry y="34" width="320" height="26" as="geometry" />
        </mxCell>
        <mxCell id="UipS37Et1Q5YVo5d0hPh-71" value="&lt;i&gt;&amp;lt;&amp;lt;Interface&amp;gt;&amp;gt;&lt;/i&gt;&amp;nbsp;Updateable" style="swimlane;fontStyle=1;align=center;verticalAlign=top;childLayout=stackLayout;horizontal=1;startSize=26;horizontalStack=0;resizeParent=1;resizeParentMax=0;resizeLast=0;collapsible=1;marginBottom=0;whiteSpace=wrap;html=1;" vertex="1" parent="1">
          <mxGeometry x="80" y="110" width="320" height="60" as="geometry" />
        </mxCell>
        <mxCell id="UipS37Et1Q5YVo5d0hPh-72" value="" style="line;strokeWidth=1;fillColor=none;align=left;verticalAlign=middle;spacingTop=-1;spacingLeft=3;spacingRight=3;rotatable=0;labelPosition=right;points=[];portConstraint=eastwest;strokeColor=inherit;" vertex="1" parent="UipS37Et1Q5YVo5d0hPh-71">
          <mxGeometry y="26" width="320" height="8" as="geometry" />
        </mxCell>
        <mxCell id="UipS37Et1Q5YVo5d0hPh-73" value="update() : void" style="text;strokeColor=none;fillColor=none;align=left;verticalAlign=top;spacingLeft=4;spacingRight=4;overflow=hidden;rotatable=0;points=[[0,0.5],[1,0.5]];portConstraint=eastwest;whiteSpace=wrap;html=1;" vertex="1" parent="UipS37Et1Q5YVo5d0hPh-71">
          <mxGeometry y="34" width="320" height="26" as="geometry" />
        </mxCell>
        <mxCell id="Qi_TZ8nRlaXqWhGWmoXV-82" value="MenuScreen" style="swimlane;fontStyle=1;align=center;verticalAlign=top;childLayout=stackLayout;horizontal=1;startSize=26;horizontalStack=0;resizeParent=1;resizeParentMax=0;resizeLast=0;collapsible=1;marginBottom=0;whiteSpace=wrap;html=1;" vertex="1" parent="1">
          <mxGeometry x="-2500" y="50" width="410" height="814" as="geometry" />
        </mxCell>
        <mxCell id="Qi_TZ8nRlaXqWhGWmoXV-83" value="parentGame : MyGdxgame&lt;br&gt;" style="text;strokeColor=none;fillColor=none;align=left;verticalAlign=top;spacingLeft=4;spacingRight=4;overflow=hidden;rotatable=0;points=[[0,0.5],[1,0.5]];portConstraint=eastwest;whiteSpace=wrap;html=1;" vertex="1" parent="Qi_TZ8nRlaXqWhGWmoXV-82">
          <mxGeometry y="26" width="410" height="26" as="geometry" />
        </mxCell>
        <mxCell id="Qi_TZ8nRlaXqWhGWmoXV-88" value="assetManager : AssetManager" style="text;strokeColor=none;fillColor=none;align=left;verticalAlign=top;spacingLeft=4;spacingRight=4;overflow=hidden;rotatable=0;points=[[0,0.5],[1,0.5]];portConstraint=eastwest;whiteSpace=wrap;html=1;" vertex="1" parent="Qi_TZ8nRlaXqWhGWmoXV-82">
          <mxGeometry y="52" width="410" height="26" as="geometry" />
        </mxCell>
        <mxCell id="Qi_TZ8nRlaXqWhGWmoXV-89" value="batch : SpriteBatch" style="text;strokeColor=none;fillColor=none;align=left;verticalAlign=top;spacingLeft=4;spacingRight=4;overflow=hidden;rotatable=0;points=[[0,0.5],[1,0.5]];portConstraint=eastwest;whiteSpace=wrap;html=1;" vertex="1" parent="Qi_TZ8nRlaXqWhGWmoXV-82">
          <mxGeometry y="78" width="410" height="26" as="geometry" />
        </mxCell>
        <mxCell id="Qi_TZ8nRlaXqWhGWmoXV-90" value="- camera : OrthographicCamera" style="text;strokeColor=none;fillColor=none;align=left;verticalAlign=top;spacingLeft=4;spacingRight=4;overflow=hidden;rotatable=0;points=[[0,0.5],[1,0.5]];portConstraint=eastwest;whiteSpace=wrap;html=1;" vertex="1" parent="Qi_TZ8nRlaXqWhGWmoXV-82">
          <mxGeometry y="104" width="410" height="26" as="geometry" />
        </mxCell>
        <mxCell id="Qi_TZ8nRlaXqWhGWmoXV-172" value="- stageCamera : OrthographicCamera" style="text;strokeColor=none;fillColor=none;align=left;verticalAlign=top;spacingLeft=4;spacingRight=4;overflow=hidden;rotatable=0;points=[[0,0.5],[1,0.5]];portConstraint=eastwest;whiteSpace=wrap;html=1;" vertex="1" parent="Qi_TZ8nRlaXqWhGWmoXV-82">
          <mxGeometry y="130" width="410" height="26" as="geometry" />
        </mxCell>
        <mxCell id="Qi_TZ8nRlaXqWhGWmoXV-91" value="- viewport : Viewport" style="text;strokeColor=none;fillColor=none;align=left;verticalAlign=top;spacingLeft=4;spacingRight=4;overflow=hidden;rotatable=0;points=[[0,0.5],[1,0.5]];portConstraint=eastwest;whiteSpace=wrap;html=1;" vertex="1" parent="Qi_TZ8nRlaXqWhGWmoXV-82">
          <mxGeometry y="156" width="410" height="26" as="geometry" />
        </mxCell>
        <mxCell id="Qi_TZ8nRlaXqWhGWmoXV-173" value="batch : SpriteBatch" style="text;strokeColor=none;fillColor=none;align=left;verticalAlign=top;spacingLeft=4;spacingRight=4;overflow=hidden;rotatable=0;points=[[0,0.5],[1,0.5]];portConstraint=eastwest;whiteSpace=wrap;html=1;" vertex="1" parent="Qi_TZ8nRlaXqWhGWmoXV-82">
          <mxGeometry y="182" width="410" height="26" as="geometry" />
        </mxCell>
        <mxCell id="Qi_TZ8nRlaXqWhGWmoXV-174" value="stage : Stage" style="text;strokeColor=none;fillColor=none;align=left;verticalAlign=top;spacingLeft=4;spacingRight=4;overflow=hidden;rotatable=0;points=[[0,0.5],[1,0.5]];portConstraint=eastwest;whiteSpace=wrap;html=1;" vertex="1" parent="Qi_TZ8nRlaXqWhGWmoXV-82">
          <mxGeometry y="208" width="410" height="26" as="geometry" />
        </mxCell>
        <mxCell id="Qi_TZ8nRlaXqWhGWmoXV-175" value="titleLabel : Label" style="text;strokeColor=none;fillColor=none;align=left;verticalAlign=top;spacingLeft=4;spacingRight=4;overflow=hidden;rotatable=0;points=[[0,0.5],[1,0.5]];portConstraint=eastwest;whiteSpace=wrap;html=1;" vertex="1" parent="Qi_TZ8nRlaXqWhGWmoXV-82">
          <mxGeometry y="234" width="410" height="26" as="geometry" />
        </mxCell>
        <mxCell id="Qi_TZ8nRlaXqWhGWmoXV-176" value="prevScoreLabel : label" style="text;strokeColor=none;fillColor=none;align=left;verticalAlign=top;spacingLeft=4;spacingRight=4;overflow=hidden;rotatable=0;points=[[0,0.5],[1,0.5]];portConstraint=eastwest;whiteSpace=wrap;html=1;" vertex="1" parent="Qi_TZ8nRlaXqWhGWmoXV-82">
          <mxGeometry y="260" width="410" height="26" as="geometry" />
        </mxCell>
        <mxCell id="Qi_TZ8nRlaXqWhGWmoXV-92" value="playButton :TextButton" style="text;strokeColor=none;fillColor=none;align=left;verticalAlign=top;spacingLeft=4;spacingRight=4;overflow=hidden;rotatable=0;points=[[0,0.5],[1,0.5]];portConstraint=eastwest;whiteSpace=wrap;html=1;" vertex="1" parent="Qi_TZ8nRlaXqWhGWmoXV-82">
          <mxGeometry y="286" width="410" height="26" as="geometry" />
        </mxCell>
        <mxCell id="Qi_TZ8nRlaXqWhGWmoXV-93" value="messages : String&amp;nbsp;" style="text;strokeColor=none;fillColor=none;align=left;verticalAlign=top;spacingLeft=4;spacingRight=4;overflow=hidden;rotatable=0;points=[[0,0.5],[1,0.5]];portConstraint=eastwest;whiteSpace=wrap;html=1;" vertex="1" parent="Qi_TZ8nRlaXqWhGWmoXV-82">
          <mxGeometry y="312" width="410" height="26" as="geometry" />
        </mxCell>
        <mxCell id="Qi_TZ8nRlaXqWhGWmoXV-94" value="multiInput : InputMultiplexer" style="text;strokeColor=none;fillColor=none;align=left;verticalAlign=top;spacingLeft=4;spacingRight=4;overflow=hidden;rotatable=0;points=[[0,0.5],[1,0.5]];portConstraint=eastwest;whiteSpace=wrap;html=1;" vertex="1" parent="Qi_TZ8nRlaXqWhGWmoXV-82">
          <mxGeometry y="338" width="410" height="26" as="geometry" />
        </mxCell>
        <mxCell id="Qi_TZ8nRlaXqWhGWmoXV-84" value="" style="line;strokeWidth=1;fillColor=none;align=left;verticalAlign=middle;spacingTop=-1;spacingLeft=3;spacingRight=3;rotatable=0;labelPosition=right;points=[];portConstraint=eastwest;strokeColor=inherit;" vertex="1" parent="Qi_TZ8nRlaXqWhGWmoXV-82">
          <mxGeometry y="364" width="410" height="8" as="geometry" />
        </mxCell>
        <mxCell id="Qi_TZ8nRlaXqWhGWmoXV-86" value="+ MenuScreen" style="text;strokeColor=none;fillColor=none;align=left;verticalAlign=top;spacingLeft=4;spacingRight=4;overflow=hidden;rotatable=0;points=[[0,0.5],[1,0.5]];portConstraint=eastwest;whiteSpace=wrap;html=1;" vertex="1" parent="Qi_TZ8nRlaXqWhGWmoXV-82">
          <mxGeometry y="372" width="410" height="26" as="geometry" />
        </mxCell>
        <mxCell id="Qi_TZ8nRlaXqWhGWmoXV-103" value="+ show() : void" style="text;strokeColor=none;fillColor=none;align=left;verticalAlign=top;spacingLeft=4;spacingRight=4;overflow=hidden;rotatable=0;points=[[0,0.5],[1,0.5]];portConstraint=eastwest;whiteSpace=wrap;html=1;" vertex="1" parent="Qi_TZ8nRlaXqWhGWmoXV-82">
          <mxGeometry y="398" width="410" height="26" as="geometry" />
        </mxCell>
        <mxCell id="Qi_TZ8nRlaXqWhGWmoXV-104" value="+ render(delta :float) : void" style="text;strokeColor=none;fillColor=none;align=left;verticalAlign=top;spacingLeft=4;spacingRight=4;overflow=hidden;rotatable=0;points=[[0,0.5],[1,0.5]];portConstraint=eastwest;whiteSpace=wrap;html=1;" vertex="1" parent="Qi_TZ8nRlaXqWhGWmoXV-82">
          <mxGeometry y="424" width="410" height="26" as="geometry" />
        </mxCell>
        <mxCell id="Qi_TZ8nRlaXqWhGWmoXV-105" value="+ update() : void" style="text;strokeColor=none;fillColor=none;align=left;verticalAlign=top;spacingLeft=4;spacingRight=4;overflow=hidden;rotatable=0;points=[[0,0.5],[1,0.5]];portConstraint=eastwest;whiteSpace=wrap;html=1;" vertex="1" parent="Qi_TZ8nRlaXqWhGWmoXV-82">
          <mxGeometry y="450" width="410" height="26" as="geometry" />
        </mxCell>
        <mxCell id="Qi_TZ8nRlaXqWhGWmoXV-109" value="+ resize(width : int , height : int) : void" style="text;strokeColor=none;fillColor=none;align=left;verticalAlign=top;spacingLeft=4;spacingRight=4;overflow=hidden;rotatable=0;points=[[0,0.5],[1,0.5]];portConstraint=eastwest;whiteSpace=wrap;html=1;" vertex="1" parent="Qi_TZ8nRlaXqWhGWmoXV-82">
          <mxGeometry y="476" width="410" height="26" as="geometry" />
        </mxCell>
        <mxCell id="Qi_TZ8nRlaXqWhGWmoXV-110" value="+ pause() : void" style="text;strokeColor=none;fillColor=none;align=left;verticalAlign=top;spacingLeft=4;spacingRight=4;overflow=hidden;rotatable=0;points=[[0,0.5],[1,0.5]];portConstraint=eastwest;whiteSpace=wrap;html=1;" vertex="1" parent="Qi_TZ8nRlaXqWhGWmoXV-82">
          <mxGeometry y="502" width="410" height="26" as="geometry" />
        </mxCell>
        <mxCell id="Qi_TZ8nRlaXqWhGWmoXV-112" value="+ resume() : void" style="text;strokeColor=none;fillColor=none;align=left;verticalAlign=top;spacingLeft=4;spacingRight=4;overflow=hidden;rotatable=0;points=[[0,0.5],[1,0.5]];portConstraint=eastwest;whiteSpace=wrap;html=1;" vertex="1" parent="Qi_TZ8nRlaXqWhGWmoXV-82">
          <mxGeometry y="528" width="410" height="26" as="geometry" />
        </mxCell>
        <mxCell id="Qi_TZ8nRlaXqWhGWmoXV-113" value="+ hide() : void" style="text;strokeColor=none;fillColor=none;align=left;verticalAlign=top;spacingLeft=4;spacingRight=4;overflow=hidden;rotatable=0;points=[[0,0.5],[1,0.5]];portConstraint=eastwest;whiteSpace=wrap;html=1;" vertex="1" parent="Qi_TZ8nRlaXqWhGWmoXV-82">
          <mxGeometry y="554" width="410" height="26" as="geometry" />
        </mxCell>
        <mxCell id="Qi_TZ8nRlaXqWhGWmoXV-114" value="+ dispose() : void" style="text;strokeColor=none;fillColor=none;align=left;verticalAlign=top;spacingLeft=4;spacingRight=4;overflow=hidden;rotatable=0;points=[[0,0.5],[1,0.5]];portConstraint=eastwest;whiteSpace=wrap;html=1;" vertex="1" parent="Qi_TZ8nRlaXqWhGWmoXV-82">
          <mxGeometry y="580" width="410" height="26" as="geometry" />
        </mxCell>
        <mxCell id="Qi_TZ8nRlaXqWhGWmoXV-115" value="+ keyDown(keycode :int) : boolean" style="text;strokeColor=none;fillColor=none;align=left;verticalAlign=top;spacingLeft=4;spacingRight=4;overflow=hidden;rotatable=0;points=[[0,0.5],[1,0.5]];portConstraint=eastwest;whiteSpace=wrap;html=1;" vertex="1" parent="Qi_TZ8nRlaXqWhGWmoXV-82">
          <mxGeometry y="606" width="410" height="26" as="geometry" />
        </mxCell>
        <mxCell id="Qi_TZ8nRlaXqWhGWmoXV-116" value="+ keyUp(keycode :int) : boolean" style="text;strokeColor=none;fillColor=none;align=left;verticalAlign=top;spacingLeft=4;spacingRight=4;overflow=hidden;rotatable=0;points=[[0,0.5],[1,0.5]];portConstraint=eastwest;whiteSpace=wrap;html=1;" vertex="1" parent="Qi_TZ8nRlaXqWhGWmoXV-82">
          <mxGeometry y="632" width="410" height="26" as="geometry" />
        </mxCell>
        <mxCell id="Qi_TZ8nRlaXqWhGWmoXV-117" value="+ keyTyped(character : char) : boolean" style="text;strokeColor=none;fillColor=none;align=left;verticalAlign=top;spacingLeft=4;spacingRight=4;overflow=hidden;rotatable=0;points=[[0,0.5],[1,0.5]];portConstraint=eastwest;whiteSpace=wrap;html=1;" vertex="1" parent="Qi_TZ8nRlaXqWhGWmoXV-82">
          <mxGeometry y="658" width="410" height="26" as="geometry" />
        </mxCell>
        <mxCell id="Qi_TZ8nRlaXqWhGWmoXV-118" value="+ touchDown (screenX : int, screenY : int, pointer : int, button :int) : boolean" style="text;strokeColor=none;fillColor=none;align=left;verticalAlign=top;spacingLeft=4;spacingRight=4;overflow=hidden;rotatable=0;points=[[0,0.5],[1,0.5]];portConstraint=eastwest;whiteSpace=wrap;html=1;" vertex="1" parent="Qi_TZ8nRlaXqWhGWmoXV-82">
          <mxGeometry y="684" width="410" height="26" as="geometry" />
        </mxCell>
        <mxCell id="Qi_TZ8nRlaXqWhGWmoXV-119" value="+ touchUp (screenX : int, screenY : int, pointer : int, button :int) : boolean" style="text;strokeColor=none;fillColor=none;align=left;verticalAlign=top;spacingLeft=4;spacingRight=4;overflow=hidden;rotatable=0;points=[[0,0.5],[1,0.5]];portConstraint=eastwest;whiteSpace=wrap;html=1;" vertex="1" parent="Qi_TZ8nRlaXqWhGWmoXV-82">
          <mxGeometry y="710" width="410" height="26" as="geometry" />
        </mxCell>
        <mxCell id="Qi_TZ8nRlaXqWhGWmoXV-120" value="+ touchDragged (screenX : int, screenY : int, pointer : int) : boolean" style="text;strokeColor=none;fillColor=none;align=left;verticalAlign=top;spacingLeft=4;spacingRight=4;overflow=hidden;rotatable=0;points=[[0,0.5],[1,0.5]];portConstraint=eastwest;whiteSpace=wrap;html=1;" vertex="1" parent="Qi_TZ8nRlaXqWhGWmoXV-82">
          <mxGeometry y="736" width="410" height="26" as="geometry" />
        </mxCell>
        <mxCell id="Qi_TZ8nRlaXqWhGWmoXV-121" value="+ mouseMoved (screenX : int, screenY :int) : boolean" style="text;strokeColor=none;fillColor=none;align=left;verticalAlign=top;spacingLeft=4;spacingRight=4;overflow=hidden;rotatable=0;points=[[0,0.5],[1,0.5]];portConstraint=eastwest;whiteSpace=wrap;html=1;" vertex="1" parent="Qi_TZ8nRlaXqWhGWmoXV-82">
          <mxGeometry y="762" width="410" height="26" as="geometry" />
        </mxCell>
        <mxCell id="Qi_TZ8nRlaXqWhGWmoXV-122" value="+ scrolled (amountX : float , amountY : float) : boolean" style="text;strokeColor=none;fillColor=none;align=left;verticalAlign=top;spacingLeft=4;spacingRight=4;overflow=hidden;rotatable=0;points=[[0,0.5],[1,0.5]];portConstraint=eastwest;whiteSpace=wrap;html=1;" vertex="1" parent="Qi_TZ8nRlaXqWhGWmoXV-82">
          <mxGeometry y="788" width="410" height="26" as="geometry" />
        </mxCell>
        <mxCell id="UipS37Et1Q5YVo5d0hPh-75" value="Goblin" style="swimlane;fontStyle=1;align=center;verticalAlign=top;childLayout=stackLayout;horizontal=1;startSize=26;horizontalStack=0;resizeParent=1;resizeParentMax=0;resizeLast=0;collapsible=1;marginBottom=0;whiteSpace=wrap;html=1;" vertex="1" parent="1">
          <mxGeometry x="90" y="500" width="320" height="86" as="geometry" />
        </mxCell>
        <mxCell id="UipS37Et1Q5YVo5d0hPh-77" value="" style="line;strokeWidth=1;fillColor=none;align=left;verticalAlign=middle;spacingTop=-1;spacingLeft=3;spacingRight=3;rotatable=0;labelPosition=right;points=[];portConstraint=eastwest;strokeColor=inherit;" vertex="1" parent="UipS37Et1Q5YVo5d0hPh-75">
          <mxGeometry y="26" width="320" height="8" as="geometry" />
        </mxCell>
        <mxCell id="UipS37Et1Q5YVo5d0hPh-78" value="+ Goblin()" style="text;strokeColor=none;fillColor=none;align=left;verticalAlign=top;spacingLeft=4;spacingRight=4;overflow=hidden;rotatable=0;points=[[0,0.5],[1,0.5]];portConstraint=eastwest;whiteSpace=wrap;html=1;" vertex="1" parent="UipS37Et1Q5YVo5d0hPh-75">
          <mxGeometry y="34" width="320" height="26" as="geometry" />
        </mxCell>
        <mxCell id="UipS37Et1Q5YVo5d0hPh-79" value="+ generateGoblinAnimation() : void" style="text;strokeColor=none;fillColor=none;align=left;verticalAlign=top;spacingLeft=4;spacingRight=4;overflow=hidden;rotatable=0;points=[[0,0.5],[1,0.5]];portConstraint=eastwest;whiteSpace=wrap;html=1;" vertex="1" parent="UipS37Et1Q5YVo5d0hPh-75">
          <mxGeometry y="60" width="320" height="26" as="geometry" />
        </mxCell>
        <mxCell id="UipS37Et1Q5YVo5d0hPh-80" value="Golem" style="swimlane;fontStyle=1;align=center;verticalAlign=top;childLayout=stackLayout;horizontal=1;startSize=26;horizontalStack=0;resizeParent=1;resizeParentMax=0;resizeLast=0;collapsible=1;marginBottom=0;whiteSpace=wrap;html=1;" vertex="1" parent="1">
          <mxGeometry x="280" y="600" width="320" height="86" as="geometry" />
        </mxCell>
        <mxCell id="UipS37Et1Q5YVo5d0hPh-81" value="" style="line;strokeWidth=1;fillColor=none;align=left;verticalAlign=middle;spacingTop=-1;spacingLeft=3;spacingRight=3;rotatable=0;labelPosition=right;points=[];portConstraint=eastwest;strokeColor=inherit;" vertex="1" parent="UipS37Et1Q5YVo5d0hPh-80">
          <mxGeometry y="26" width="320" height="8" as="geometry" />
        </mxCell>
        <mxCell id="UipS37Et1Q5YVo5d0hPh-82" value="+ Golem()" style="text;strokeColor=none;fillColor=none;align=left;verticalAlign=top;spacingLeft=4;spacingRight=4;overflow=hidden;rotatable=0;points=[[0,0.5],[1,0.5]];portConstraint=eastwest;whiteSpace=wrap;html=1;" vertex="1" parent="UipS37Et1Q5YVo5d0hPh-80">
          <mxGeometry y="34" width="320" height="26" as="geometry" />
        </mxCell>
        <mxCell id="UipS37Et1Q5YVo5d0hPh-83" value="+ generateGolemAnimation() : void" style="text;strokeColor=none;fillColor=none;align=left;verticalAlign=top;spacingLeft=4;spacingRight=4;overflow=hidden;rotatable=0;points=[[0,0.5],[1,0.5]];portConstraint=eastwest;whiteSpace=wrap;html=1;" vertex="1" parent="UipS37Et1Q5YVo5d0hPh-80">
          <mxGeometry y="60" width="320" height="26" as="geometry" />
        </mxCell>
        <mxCell id="UipS37Et1Q5YVo5d0hPh-84" value="Mushroom" style="swimlane;fontStyle=1;align=center;verticalAlign=top;childLayout=stackLayout;horizontal=1;startSize=26;horizontalStack=0;resizeParent=1;resizeParentMax=0;resizeLast=0;collapsible=1;marginBottom=0;whiteSpace=wrap;html=1;" vertex="1" parent="1">
          <mxGeometry x="470" y="500" width="320" height="86" as="geometry" />
        </mxCell>
        <mxCell id="UipS37Et1Q5YVo5d0hPh-85" value="" style="line;strokeWidth=1;fillColor=none;align=left;verticalAlign=middle;spacingTop=-1;spacingLeft=3;spacingRight=3;rotatable=0;labelPosition=right;points=[];portConstraint=eastwest;strokeColor=inherit;" vertex="1" parent="UipS37Et1Q5YVo5d0hPh-84">
          <mxGeometry y="26" width="320" height="8" as="geometry" />
        </mxCell>
        <mxCell id="UipS37Et1Q5YVo5d0hPh-86" value="+ Mushroom()" style="text;strokeColor=none;fillColor=none;align=left;verticalAlign=top;spacingLeft=4;spacingRight=4;overflow=hidden;rotatable=0;points=[[0,0.5],[1,0.5]];portConstraint=eastwest;whiteSpace=wrap;html=1;" vertex="1" parent="UipS37Et1Q5YVo5d0hPh-84">
          <mxGeometry y="34" width="320" height="26" as="geometry" />
        </mxCell>
        <mxCell id="UipS37Et1Q5YVo5d0hPh-87" value="+ generateMushroomAnimation() : void" style="text;strokeColor=none;fillColor=none;align=left;verticalAlign=top;spacingLeft=4;spacingRight=4;overflow=hidden;rotatable=0;points=[[0,0.5],[1,0.5]];portConstraint=eastwest;whiteSpace=wrap;html=1;" vertex="1" parent="UipS37Et1Q5YVo5d0hPh-84">
          <mxGeometry y="60" width="320" height="26" as="geometry" />
        </mxCell>
        <mxCell id="UipS37Et1Q5YVo5d0hPh-88" value="Player" style="swimlane;fontStyle=1;align=center;verticalAlign=top;childLayout=stackLayout;horizontal=1;startSize=26;horizontalStack=0;resizeParent=1;resizeParentMax=0;resizeLast=0;collapsible=1;marginBottom=0;whiteSpace=wrap;html=1;" vertex="1" parent="1">
          <mxGeometry x="810" y="270" width="320" height="580" as="geometry" />
        </mxCell>
        <mxCell id="UipS37Et1Q5YVo5d0hPh-89" value="playerIdx : int" style="text;strokeColor=none;fillColor=none;align=left;verticalAlign=top;spacingLeft=4;spacingRight=4;overflow=hidden;rotatable=0;points=[[0,0.5],[1,0.5]];portConstraint=eastwest;whiteSpace=wrap;html=1;" vertex="1" parent="UipS37Et1Q5YVo5d0hPh-88">
          <mxGeometry y="26" width="320" height="26" as="geometry" />
        </mxCell>
        <mxCell id="UipS37Et1Q5YVo5d0hPh-92" value="fileName : String[]" style="text;strokeColor=none;fillColor=none;align=left;verticalAlign=top;spacingLeft=4;spacingRight=4;overflow=hidden;rotatable=0;points=[[0,0.5],[1,0.5]];portConstraint=eastwest;whiteSpace=wrap;html=1;" vertex="1" parent="UipS37Et1Q5YVo5d0hPh-88">
          <mxGeometry y="52" width="320" height="26" as="geometry" />
        </mxCell>
        <mxCell id="UipS37Et1Q5YVo5d0hPh-93" value="xOffSet : int[]" style="text;strokeColor=none;fillColor=none;align=left;verticalAlign=top;spacingLeft=4;spacingRight=4;overflow=hidden;rotatable=0;points=[[0,0.5],[1,0.5]];portConstraint=eastwest;whiteSpace=wrap;html=1;" vertex="1" parent="UipS37Et1Q5YVo5d0hPh-88">
          <mxGeometry y="78" width="320" height="26" as="geometry" />
        </mxCell>
        <mxCell id="UipS37Et1Q5YVo5d0hPh-94" value="yOffSet : int[]" style="text;strokeColor=none;fillColor=none;align=left;verticalAlign=top;spacingLeft=4;spacingRight=4;overflow=hidden;rotatable=0;points=[[0,0.5],[1,0.5]];portConstraint=eastwest;whiteSpace=wrap;html=1;" vertex="1" parent="UipS37Et1Q5YVo5d0hPh-88">
          <mxGeometry y="104" width="320" height="26" as="geometry" />
        </mxCell>
        <mxCell id="UipS37Et1Q5YVo5d0hPh-95" value="frameWidth : int[]" style="text;strokeColor=none;fillColor=none;align=left;verticalAlign=top;spacingLeft=4;spacingRight=4;overflow=hidden;rotatable=0;points=[[0,0.5],[1,0.5]];portConstraint=eastwest;whiteSpace=wrap;html=1;" vertex="1" parent="UipS37Et1Q5YVo5d0hPh-88">
          <mxGeometry y="130" width="320" height="26" as="geometry" />
        </mxCell>
        <mxCell id="UipS37Et1Q5YVo5d0hPh-96" value="frameHeigth : int[]" style="text;strokeColor=none;fillColor=none;align=left;verticalAlign=top;spacingLeft=4;spacingRight=4;overflow=hidden;rotatable=0;points=[[0,0.5],[1,0.5]];portConstraint=eastwest;whiteSpace=wrap;html=1;" vertex="1" parent="UipS37Et1Q5YVo5d0hPh-88">
          <mxGeometry y="156" width="320" height="26" as="geometry" />
        </mxCell>
        <mxCell id="UipS37Et1Q5YVo5d0hPh-97" value="idleFrameCount : int[]" style="text;strokeColor=none;fillColor=none;align=left;verticalAlign=top;spacingLeft=4;spacingRight=4;overflow=hidden;rotatable=0;points=[[0,0.5],[1,0.5]];portConstraint=eastwest;whiteSpace=wrap;html=1;" vertex="1" parent="UipS37Et1Q5YVo5d0hPh-88">
          <mxGeometry y="182" width="320" height="26" as="geometry" />
        </mxCell>
        <mxCell id="UipS37Et1Q5YVo5d0hPh-98" value="moveFrameCount : int[]" style="text;strokeColor=none;fillColor=none;align=left;verticalAlign=top;spacingLeft=4;spacingRight=4;overflow=hidden;rotatable=0;points=[[0,0.5],[1,0.5]];portConstraint=eastwest;whiteSpace=wrap;html=1;" vertex="1" parent="UipS37Et1Q5YVo5d0hPh-88">
          <mxGeometry y="208" width="320" height="26" as="geometry" />
        </mxCell>
        <mxCell id="UipS37Et1Q5YVo5d0hPh-99" value="attackFrameCount : int[]" style="text;strokeColor=none;fillColor=none;align=left;verticalAlign=top;spacingLeft=4;spacingRight=4;overflow=hidden;rotatable=0;points=[[0,0.5],[1,0.5]];portConstraint=eastwest;whiteSpace=wrap;html=1;" vertex="1" parent="UipS37Et1Q5YVo5d0hPh-88">
          <mxGeometry y="234" width="320" height="26" as="geometry" />
        </mxCell>
        <mxCell id="UipS37Et1Q5YVo5d0hPh-100" value="dieFrameCount : int[]" style="text;strokeColor=none;fillColor=none;align=left;verticalAlign=top;spacingLeft=4;spacingRight=4;overflow=hidden;rotatable=0;points=[[0,0.5],[1,0.5]];portConstraint=eastwest;whiteSpace=wrap;html=1;" vertex="1" parent="UipS37Et1Q5YVo5d0hPh-88">
          <mxGeometry y="260" width="320" height="26" as="geometry" />
        </mxCell>
        <mxCell id="UipS37Et1Q5YVo5d0hPh-101" value="direction : Direction" style="text;strokeColor=none;fillColor=none;align=left;verticalAlign=top;spacingLeft=4;spacingRight=4;overflow=hidden;rotatable=0;points=[[0,0.5],[1,0.5]];portConstraint=eastwest;whiteSpace=wrap;html=1;" vertex="1" parent="UipS37Et1Q5YVo5d0hPh-88">
          <mxGeometry y="286" width="320" height="26" as="geometry" />
        </mxCell>
        <mxCell id="UipS37Et1Q5YVo5d0hPh-102" value="equippedWeapon : Weapon" style="text;strokeColor=none;fillColor=none;align=left;verticalAlign=top;spacingLeft=4;spacingRight=4;overflow=hidden;rotatable=0;points=[[0,0.5],[1,0.5]];portConstraint=eastwest;whiteSpace=wrap;html=1;" vertex="1" parent="UipS37Et1Q5YVo5d0hPh-88">
          <mxGeometry y="312" width="320" height="26" as="geometry" />
        </mxCell>
        <mxCell id="UipS37Et1Q5YVo5d0hPh-103" value="weaponList : Weapon[]" style="text;strokeColor=none;fillColor=none;align=left;verticalAlign=top;spacingLeft=4;spacingRight=4;overflow=hidden;rotatable=0;points=[[0,0.5],[1,0.5]];portConstraint=eastwest;whiteSpace=wrap;html=1;" vertex="1" parent="UipS37Et1Q5YVo5d0hPh-88">
          <mxGeometry y="338" width="320" height="26" as="geometry" />
        </mxCell>
        <mxCell id="UipS37Et1Q5YVo5d0hPh-90" value="" style="line;strokeWidth=1;fillColor=none;align=left;verticalAlign=middle;spacingTop=-1;spacingLeft=3;spacingRight=3;rotatable=0;labelPosition=right;points=[];portConstraint=eastwest;strokeColor=inherit;" vertex="1" parent="UipS37Et1Q5YVo5d0hPh-88">
          <mxGeometry y="364" width="320" height="8" as="geometry" />
        </mxCell>
        <mxCell id="UipS37Et1Q5YVo5d0hPh-91" value="+ Player()" style="text;strokeColor=none;fillColor=none;align=left;verticalAlign=top;spacingLeft=4;spacingRight=4;overflow=hidden;rotatable=0;points=[[0,0.5],[1,0.5]];portConstraint=eastwest;whiteSpace=wrap;html=1;" vertex="1" parent="UipS37Et1Q5YVo5d0hPh-88">
          <mxGeometry y="372" width="320" height="26" as="geometry" />
        </mxCell>
        <mxCell id="UipS37Et1Q5YVo5d0hPh-105" value="+ generatePlayerAnimation() : void" style="text;strokeColor=none;fillColor=none;align=left;verticalAlign=top;spacingLeft=4;spacingRight=4;overflow=hidden;rotatable=0;points=[[0,0.5],[1,0.5]];portConstraint=eastwest;whiteSpace=wrap;html=1;" vertex="1" parent="UipS37Et1Q5YVo5d0hPh-88">
          <mxGeometry y="398" width="320" height="26" as="geometry" />
        </mxCell>
        <mxCell id="UipS37Et1Q5YVo5d0hPh-106" value="+ draw(batch : SpriteBatch) : void" style="text;strokeColor=none;fillColor=none;align=left;verticalAlign=top;spacingLeft=4;spacingRight=4;overflow=hidden;rotatable=0;points=[[0,0.5],[1,0.5]];portConstraint=eastwest;whiteSpace=wrap;html=1;" vertex="1" parent="UipS37Et1Q5YVo5d0hPh-88">
          <mxGeometry y="424" width="320" height="26" as="geometry" />
        </mxCell>
        <mxCell id="UipS37Et1Q5YVo5d0hPh-107" value="+ update : void" style="text;strokeColor=none;fillColor=none;align=left;verticalAlign=top;spacingLeft=4;spacingRight=4;overflow=hidden;rotatable=0;points=[[0,0.5],[1,0.5]];portConstraint=eastwest;whiteSpace=wrap;html=1;" vertex="1" parent="UipS37Et1Q5YVo5d0hPh-88">
          <mxGeometry y="450" width="320" height="26" as="geometry" />
        </mxCell>
        <mxCell id="UipS37Et1Q5YVo5d0hPh-108" value="+ setMove(d : Direction) : void" style="text;strokeColor=none;fillColor=none;align=left;verticalAlign=top;spacingLeft=4;spacingRight=4;overflow=hidden;rotatable=0;points=[[0,0.5],[1,0.5]];portConstraint=eastwest;whiteSpace=wrap;html=1;" vertex="1" parent="UipS37Et1Q5YVo5d0hPh-88">
          <mxGeometry y="476" width="320" height="26" as="geometry" />
        </mxCell>
        <mxCell id="UipS37Et1Q5YVo5d0hPh-109" value="+ Stop() : void" style="text;strokeColor=none;fillColor=none;align=left;verticalAlign=top;spacingLeft=4;spacingRight=4;overflow=hidden;rotatable=0;points=[[0,0.5],[1,0.5]];portConstraint=eastwest;whiteSpace=wrap;html=1;" vertex="1" parent="UipS37Et1Q5YVo5d0hPh-88">
          <mxGeometry y="502" width="320" height="26" as="geometry" />
        </mxCell>
        <mxCell id="UipS37Et1Q5YVo5d0hPh-110" value="+ changeWeapon() : void" style="text;strokeColor=none;fillColor=none;align=left;verticalAlign=top;spacingLeft=4;spacingRight=4;overflow=hidden;rotatable=0;points=[[0,0.5],[1,0.5]];portConstraint=eastwest;whiteSpace=wrap;html=1;" vertex="1" parent="UipS37Et1Q5YVo5d0hPh-88">
          <mxGeometry y="528" width="320" height="26" as="geometry" />
        </mxCell>
        <mxCell id="UipS37Et1Q5YVo5d0hPh-111" value="+ getDirection() : Direction" style="text;strokeColor=none;fillColor=none;align=left;verticalAlign=top;spacingLeft=4;spacingRight=4;overflow=hidden;rotatable=0;points=[[0,0.5],[1,0.5]];portConstraint=eastwest;whiteSpace=wrap;html=1;" vertex="1" parent="UipS37Et1Q5YVo5d0hPh-88">
          <mxGeometry y="554" width="320" height="26" as="geometry" />
        </mxCell>
        <mxCell id="UipS37Et1Q5YVo5d0hPh-112" value="LoadingScreen" style="swimlane;fontStyle=1;align=center;verticalAlign=top;childLayout=stackLayout;horizontal=1;startSize=26;horizontalStack=0;resizeParent=1;resizeParentMax=0;resizeLast=0;collapsible=1;marginBottom=0;whiteSpace=wrap;html=1;" vertex="1" parent="1">
          <mxGeometry x="-1780" y="50" width="470" height="658" as="geometry" />
        </mxCell>
        <mxCell id="UipS37Et1Q5YVo5d0hPh-113" value="parentGame : MyGdxGame" style="text;strokeColor=none;fillColor=none;align=left;verticalAlign=top;spacingLeft=4;spacingRight=4;overflow=hidden;rotatable=0;points=[[0,0.5],[1,0.5]];portConstraint=eastwest;whiteSpace=wrap;html=1;" vertex="1" parent="UipS37Et1Q5YVo5d0hPh-112">
          <mxGeometry y="26" width="470" height="26" as="geometry" />
        </mxCell>
        <mxCell id="UipS37Et1Q5YVo5d0hPh-118" value="assetManager : AssetManager" style="text;strokeColor=none;fillColor=none;align=left;verticalAlign=top;spacingLeft=4;spacingRight=4;overflow=hidden;rotatable=0;points=[[0,0.5],[1,0.5]];portConstraint=eastwest;whiteSpace=wrap;html=1;" vertex="1" parent="UipS37Et1Q5YVo5d0hPh-112">
          <mxGeometry y="52" width="470" height="26" as="geometry" />
        </mxCell>
        <mxCell id="UipS37Et1Q5YVo5d0hPh-119" value="- viewport : Viewport" style="text;strokeColor=none;fillColor=none;align=left;verticalAlign=top;spacingLeft=4;spacingRight=4;overflow=hidden;rotatable=0;points=[[0,0.5],[1,0.5]];portConstraint=eastwest;whiteSpace=wrap;html=1;" vertex="1" parent="UipS37Et1Q5YVo5d0hPh-112">
          <mxGeometry y="78" width="470" height="26" as="geometry" />
        </mxCell>
        <mxCell id="UipS37Et1Q5YVo5d0hPh-120" value="- camera : OrthographicCamera" style="text;strokeColor=none;fillColor=none;align=left;verticalAlign=top;spacingLeft=4;spacingRight=4;overflow=hidden;rotatable=0;points=[[0,0.5],[1,0.5]];portConstraint=eastwest;whiteSpace=wrap;html=1;" vertex="1" parent="UipS37Et1Q5YVo5d0hPh-112">
          <mxGeometry y="104" width="470" height="26" as="geometry" />
        </mxCell>
        <mxCell id="UipS37Et1Q5YVo5d0hPh-121" value="batch : SpriteBatch" style="text;strokeColor=none;fillColor=none;align=left;verticalAlign=top;spacingLeft=4;spacingRight=4;overflow=hidden;rotatable=0;points=[[0,0.5],[1,0.5]];portConstraint=eastwest;whiteSpace=wrap;html=1;" vertex="1" parent="UipS37Et1Q5YVo5d0hPh-112">
          <mxGeometry y="130" width="470" height="26" as="geometry" />
        </mxCell>
        <mxCell id="UipS37Et1Q5YVo5d0hPh-122" value="font : BitmapFont" style="text;strokeColor=none;fillColor=none;align=left;verticalAlign=top;spacingLeft=4;spacingRight=4;overflow=hidden;rotatable=0;points=[[0,0.5],[1,0.5]];portConstraint=eastwest;whiteSpace=wrap;html=1;" vertex="1" parent="UipS37Et1Q5YVo5d0hPh-112">
          <mxGeometry y="156" width="470" height="26" as="geometry" />
        </mxCell>
        <mxCell id="UipS37Et1Q5YVo5d0hPh-123" value="text : BitmapFontCache" style="text;strokeColor=none;fillColor=none;align=left;verticalAlign=top;spacingLeft=4;spacingRight=4;overflow=hidden;rotatable=0;points=[[0,0.5],[1,0.5]];portConstraint=eastwest;whiteSpace=wrap;html=1;" vertex="1" parent="UipS37Et1Q5YVo5d0hPh-112">
          <mxGeometry y="182" width="470" height="26" as="geometry" />
        </mxCell>
        <mxCell id="UipS37Et1Q5YVo5d0hPh-114" value="" style="line;strokeWidth=1;fillColor=none;align=left;verticalAlign=middle;spacingTop=-1;spacingLeft=3;spacingRight=3;rotatable=0;labelPosition=right;points=[];portConstraint=eastwest;strokeColor=inherit;" vertex="1" parent="UipS37Et1Q5YVo5d0hPh-112">
          <mxGeometry y="208" width="470" height="8" as="geometry" />
        </mxCell>
        <mxCell id="UipS37Et1Q5YVo5d0hPh-115" value="+ LoadingScreen()" style="text;strokeColor=none;fillColor=none;align=left;verticalAlign=top;spacingLeft=4;spacingRight=4;overflow=hidden;rotatable=0;points=[[0,0.5],[1,0.5]];portConstraint=eastwest;whiteSpace=wrap;html=1;" vertex="1" parent="UipS37Et1Q5YVo5d0hPh-112">
          <mxGeometry y="216" width="470" height="26" as="geometry" />
        </mxCell>
        <mxCell id="UipS37Et1Q5YVo5d0hPh-125" value="+ show{Gdx.input.setInputProcessor(this);} : void" style="text;strokeColor=none;fillColor=none;align=left;verticalAlign=top;spacingLeft=4;spacingRight=4;overflow=hidden;rotatable=0;points=[[0,0.5],[1,0.5]];portConstraint=eastwest;whiteSpace=wrap;html=1;" vertex="1" parent="UipS37Et1Q5YVo5d0hPh-112">
          <mxGeometry y="242" width="470" height="26" as="geometry" />
        </mxCell>
        <mxCell id="UipS37Et1Q5YVo5d0hPh-126" value="+ render(delta :float) : void" style="text;strokeColor=none;fillColor=none;align=left;verticalAlign=top;spacingLeft=4;spacingRight=4;overflow=hidden;rotatable=0;points=[[0,0.5],[1,0.5]];portConstraint=eastwest;whiteSpace=wrap;html=1;" vertex="1" parent="UipS37Et1Q5YVo5d0hPh-112">
          <mxGeometry y="268" width="470" height="26" as="geometry" />
        </mxCell>
        <mxCell id="UipS37Et1Q5YVo5d0hPh-124" value="+ update() : void" style="text;strokeColor=none;fillColor=none;align=left;verticalAlign=top;spacingLeft=4;spacingRight=4;overflow=hidden;rotatable=0;points=[[0,0.5],[1,0.5]];portConstraint=eastwest;whiteSpace=wrap;html=1;" vertex="1" parent="UipS37Et1Q5YVo5d0hPh-112">
          <mxGeometry y="294" width="470" height="26" as="geometry" />
        </mxCell>
        <mxCell id="UipS37Et1Q5YVo5d0hPh-127" value="+ resize(width : int , height : int) : void" style="text;strokeColor=none;fillColor=none;align=left;verticalAlign=top;spacingLeft=4;spacingRight=4;overflow=hidden;rotatable=0;points=[[0,0.5],[1,0.5]];portConstraint=eastwest;whiteSpace=wrap;html=1;" vertex="1" parent="UipS37Et1Q5YVo5d0hPh-112">
          <mxGeometry y="320" width="470" height="26" as="geometry" />
        </mxCell>
        <mxCell id="UipS37Et1Q5YVo5d0hPh-128" value="+ pause() : void" style="text;strokeColor=none;fillColor=none;align=left;verticalAlign=top;spacingLeft=4;spacingRight=4;overflow=hidden;rotatable=0;points=[[0,0.5],[1,0.5]];portConstraint=eastwest;whiteSpace=wrap;html=1;" vertex="1" parent="UipS37Et1Q5YVo5d0hPh-112">
          <mxGeometry y="346" width="470" height="26" as="geometry" />
        </mxCell>
        <mxCell id="UipS37Et1Q5YVo5d0hPh-129" value="+ resume() : void" style="text;strokeColor=none;fillColor=none;align=left;verticalAlign=top;spacingLeft=4;spacingRight=4;overflow=hidden;rotatable=0;points=[[0,0.5],[1,0.5]];portConstraint=eastwest;whiteSpace=wrap;html=1;" vertex="1" parent="UipS37Et1Q5YVo5d0hPh-112">
          <mxGeometry y="372" width="470" height="26" as="geometry" />
        </mxCell>
        <mxCell id="UipS37Et1Q5YVo5d0hPh-130" value="+ hide() : void" style="text;strokeColor=none;fillColor=none;align=left;verticalAlign=top;spacingLeft=4;spacingRight=4;overflow=hidden;rotatable=0;points=[[0,0.5],[1,0.5]];portConstraint=eastwest;whiteSpace=wrap;html=1;" vertex="1" parent="UipS37Et1Q5YVo5d0hPh-112">
          <mxGeometry y="398" width="470" height="26" as="geometry" />
        </mxCell>
        <mxCell id="UipS37Et1Q5YVo5d0hPh-131" value="+ dispose() : void" style="text;strokeColor=none;fillColor=none;align=left;verticalAlign=top;spacingLeft=4;spacingRight=4;overflow=hidden;rotatable=0;points=[[0,0.5],[1,0.5]];portConstraint=eastwest;whiteSpace=wrap;html=1;" vertex="1" parent="UipS37Et1Q5YVo5d0hPh-112">
          <mxGeometry y="424" width="470" height="26" as="geometry" />
        </mxCell>
        <mxCell id="UipS37Et1Q5YVo5d0hPh-132" value="+ keyDown(keycode :int) : boolean" style="text;strokeColor=none;fillColor=none;align=left;verticalAlign=top;spacingLeft=4;spacingRight=4;overflow=hidden;rotatable=0;points=[[0,0.5],[1,0.5]];portConstraint=eastwest;whiteSpace=wrap;html=1;" vertex="1" parent="UipS37Et1Q5YVo5d0hPh-112">
          <mxGeometry y="450" width="470" height="26" as="geometry" />
        </mxCell>
        <mxCell id="UipS37Et1Q5YVo5d0hPh-133" value="+ keyUp(keycode :int) : boolean" style="text;strokeColor=none;fillColor=none;align=left;verticalAlign=top;spacingLeft=4;spacingRight=4;overflow=hidden;rotatable=0;points=[[0,0.5],[1,0.5]];portConstraint=eastwest;whiteSpace=wrap;html=1;" vertex="1" parent="UipS37Et1Q5YVo5d0hPh-112">
          <mxGeometry y="476" width="470" height="26" as="geometry" />
        </mxCell>
        <mxCell id="UipS37Et1Q5YVo5d0hPh-134" value="+ keyTyped(character : char) : boolean" style="text;strokeColor=none;fillColor=none;align=left;verticalAlign=top;spacingLeft=4;spacingRight=4;overflow=hidden;rotatable=0;points=[[0,0.5],[1,0.5]];portConstraint=eastwest;whiteSpace=wrap;html=1;" vertex="1" parent="UipS37Et1Q5YVo5d0hPh-112">
          <mxGeometry y="502" width="470" height="26" as="geometry" />
        </mxCell>
        <mxCell id="UipS37Et1Q5YVo5d0hPh-135" value="+ touchDown (screenX : int, screenY : int, pointer : int, button :int) : boolean" style="text;strokeColor=none;fillColor=none;align=left;verticalAlign=top;spacingLeft=4;spacingRight=4;overflow=hidden;rotatable=0;points=[[0,0.5],[1,0.5]];portConstraint=eastwest;whiteSpace=wrap;html=1;" vertex="1" parent="UipS37Et1Q5YVo5d0hPh-112">
          <mxGeometry y="528" width="470" height="26" as="geometry" />
        </mxCell>
        <mxCell id="UipS37Et1Q5YVo5d0hPh-136" value="+ touchUp (screenX : int, screenY : int, pointer : int, button :int) : boolean" style="text;strokeColor=none;fillColor=none;align=left;verticalAlign=top;spacingLeft=4;spacingRight=4;overflow=hidden;rotatable=0;points=[[0,0.5],[1,0.5]];portConstraint=eastwest;whiteSpace=wrap;html=1;" vertex="1" parent="UipS37Et1Q5YVo5d0hPh-112">
          <mxGeometry y="554" width="470" height="26" as="geometry" />
        </mxCell>
        <mxCell id="UipS37Et1Q5YVo5d0hPh-137" value="+ touchDragged (screenX : int, screenY : int, pointer : int) : boolean" style="text;strokeColor=none;fillColor=none;align=left;verticalAlign=top;spacingLeft=4;spacingRight=4;overflow=hidden;rotatable=0;points=[[0,0.5],[1,0.5]];portConstraint=eastwest;whiteSpace=wrap;html=1;" vertex="1" parent="UipS37Et1Q5YVo5d0hPh-112">
          <mxGeometry y="580" width="470" height="26" as="geometry" />
        </mxCell>
        <mxCell id="UipS37Et1Q5YVo5d0hPh-138" value="+ mouseMoved (screenX : int, screenY :int) : boolean" style="text;strokeColor=none;fillColor=none;align=left;verticalAlign=top;spacingLeft=4;spacingRight=4;overflow=hidden;rotatable=0;points=[[0,0.5],[1,0.5]];portConstraint=eastwest;whiteSpace=wrap;html=1;" vertex="1" parent="UipS37Et1Q5YVo5d0hPh-112">
          <mxGeometry y="606" width="470" height="26" as="geometry" />
        </mxCell>
        <mxCell id="UipS37Et1Q5YVo5d0hPh-139" value="+ scrolled (amountX : float , amountY : float) : boolean" style="text;strokeColor=none;fillColor=none;align=left;verticalAlign=top;spacingLeft=4;spacingRight=4;overflow=hidden;rotatable=0;points=[[0,0.5],[1,0.5]];portConstraint=eastwest;whiteSpace=wrap;html=1;" vertex="1" parent="UipS37Et1Q5YVo5d0hPh-112">
          <mxGeometry y="632" width="470" height="26" as="geometry" />
        </mxCell>
        <mxCell id="Qi_TZ8nRlaXqWhGWmoXV-134" value="GameScreen" style="swimlane;fontStyle=1;align=center;verticalAlign=top;childLayout=stackLayout;horizontal=1;startSize=26;horizontalStack=0;resizeParent=1;resizeParentMax=0;resizeLast=0;collapsible=1;marginBottom=0;whiteSpace=wrap;html=1;" vertex="1" parent="1">
          <mxGeometry x="-1150" y="50" width="410" height="970" as="geometry" />
        </mxCell>
        <mxCell id="Qi_TZ8nRlaXqWhGWmoXV-135" value="parentGame : MyGdxgame&lt;br&gt;" style="text;strokeColor=none;fillColor=none;align=left;verticalAlign=top;spacingLeft=4;spacingRight=4;overflow=hidden;rotatable=0;points=[[0,0.5],[1,0.5]];portConstraint=eastwest;whiteSpace=wrap;html=1;" vertex="1" parent="Qi_TZ8nRlaXqWhGWmoXV-134">
          <mxGeometry y="26" width="410" height="26" as="geometry" />
        </mxCell>
        <mxCell id="Qi_TZ8nRlaXqWhGWmoXV-136" value="assetManager : AssetManager" style="text;strokeColor=none;fillColor=none;align=left;verticalAlign=top;spacingLeft=4;spacingRight=4;overflow=hidden;rotatable=0;points=[[0,0.5],[1,0.5]];portConstraint=eastwest;whiteSpace=wrap;html=1;" vertex="1" parent="Qi_TZ8nRlaXqWhGWmoXV-134">
          <mxGeometry y="52" width="410" height="26" as="geometry" />
        </mxCell>
        <mxCell id="Qi_TZ8nRlaXqWhGWmoXV-137" value="batch : SpriteBatch" style="text;strokeColor=none;fillColor=none;align=left;verticalAlign=top;spacingLeft=4;spacingRight=4;overflow=hidden;rotatable=0;points=[[0,0.5],[1,0.5]];portConstraint=eastwest;whiteSpace=wrap;html=1;" vertex="1" parent="Qi_TZ8nRlaXqWhGWmoXV-134">
          <mxGeometry y="78" width="410" height="26" as="geometry" />
        </mxCell>
        <mxCell id="Qi_TZ8nRlaXqWhGWmoXV-138" value="Camera : OrthographicCamera" style="text;strokeColor=none;fillColor=none;align=left;verticalAlign=top;spacingLeft=4;spacingRight=4;overflow=hidden;rotatable=0;points=[[0,0.5],[1,0.5]];portConstraint=eastwest;whiteSpace=wrap;html=1;" vertex="1" parent="Qi_TZ8nRlaXqWhGWmoXV-134">
          <mxGeometry y="104" width="410" height="26" as="geometry" />
        </mxCell>
        <mxCell id="Qi_TZ8nRlaXqWhGWmoXV-139" value="viewport : Viewport" style="text;strokeColor=none;fillColor=none;align=left;verticalAlign=top;spacingLeft=4;spacingRight=4;overflow=hidden;rotatable=0;points=[[0,0.5],[1,0.5]];portConstraint=eastwest;whiteSpace=wrap;html=1;" vertex="1" parent="Qi_TZ8nRlaXqWhGWmoXV-134">
          <mxGeometry y="130" width="410" height="26" as="geometry" />
        </mxCell>
        <mxCell id="Qi_TZ8nRlaXqWhGWmoXV-140" value="font : BitmapFont" style="text;strokeColor=none;fillColor=none;align=left;verticalAlign=top;spacingLeft=4;spacingRight=4;overflow=hidden;rotatable=0;points=[[0,0.5],[1,0.5]];portConstraint=eastwest;whiteSpace=wrap;html=1;" vertex="1" parent="Qi_TZ8nRlaXqWhGWmoXV-134">
          <mxGeometry y="156" width="410" height="26" as="geometry" />
        </mxCell>
        <mxCell id="Qi_TZ8nRlaXqWhGWmoXV-141" value="fontScore : BitmapFontCache" style="text;strokeColor=none;fillColor=none;align=left;verticalAlign=top;spacingLeft=4;spacingRight=4;overflow=hidden;rotatable=0;points=[[0,0.5],[1,0.5]];portConstraint=eastwest;whiteSpace=wrap;html=1;" vertex="1" parent="Qi_TZ8nRlaXqWhGWmoXV-134">
          <mxGeometry y="182" width="410" height="26" as="geometry" />
        </mxCell>
        <mxCell id="Qi_TZ8nRlaXqWhGWmoXV-142" value="fontLives : BitmapFontCache" style="text;strokeColor=none;fillColor=none;align=left;verticalAlign=top;spacingLeft=4;spacingRight=4;overflow=hidden;rotatable=0;points=[[0,0.5],[1,0.5]];portConstraint=eastwest;whiteSpace=wrap;html=1;" vertex="1" parent="Qi_TZ8nRlaXqWhGWmoXV-134">
          <mxGeometry y="208" width="410" height="26" as="geometry" />
        </mxCell>
        <mxCell id="Qi_TZ8nRlaXqWhGWmoXV-143" value="mainPlayer : Player" style="text;strokeColor=none;fillColor=none;align=left;verticalAlign=top;spacingLeft=4;spacingRight=4;overflow=hidden;rotatable=0;points=[[0,0.5],[1,0.5]];portConstraint=eastwest;whiteSpace=wrap;html=1;" vertex="1" parent="Qi_TZ8nRlaXqWhGWmoXV-134">
          <mxGeometry y="234" width="410" height="26" as="geometry" />
        </mxCell>
        <mxCell id="Qi_TZ8nRlaXqWhGWmoXV-144" value="monsters : ArrayList&amp;lt;Monster&amp;gt;" style="text;strokeColor=none;fillColor=none;align=left;verticalAlign=top;spacingLeft=4;spacingRight=4;overflow=hidden;rotatable=0;points=[[0,0.5],[1,0.5]];portConstraint=eastwest;whiteSpace=wrap;html=1;" vertex="1" parent="Qi_TZ8nRlaXqWhGWmoXV-134">
          <mxGeometry y="260" width="410" height="26" as="geometry" />
        </mxCell>
        <mxCell id="Qi_TZ8nRlaXqWhGWmoXV-145" value="monsterAttackParticles : ArrayList&amp;lt;AttackParticle&amp;gt;" style="text;strokeColor=none;fillColor=none;align=left;verticalAlign=top;spacingLeft=4;spacingRight=4;overflow=hidden;rotatable=0;points=[[0,0.5],[1,0.5]];portConstraint=eastwest;whiteSpace=wrap;html=1;" vertex="1" parent="Qi_TZ8nRlaXqWhGWmoXV-134">
          <mxGeometry y="286" width="410" height="26" as="geometry" />
        </mxCell>
        <mxCell id="Qi_TZ8nRlaXqWhGWmoXV-146" value="playerAttackParticles : Arraylist&amp;lt;AttackParticle&amp;gt;&amp;nbsp;" style="text;strokeColor=none;fillColor=none;align=left;verticalAlign=top;spacingLeft=4;spacingRight=4;overflow=hidden;rotatable=0;points=[[0,0.5],[1,0.5]];portConstraint=eastwest;whiteSpace=wrap;html=1;" vertex="1" parent="Qi_TZ8nRlaXqWhGWmoXV-134">
          <mxGeometry y="312" width="410" height="26" as="geometry" />
        </mxCell>
        <mxCell id="Qi_TZ8nRlaXqWhGWmoXV-147" value="score : int = 0" style="text;strokeColor=none;fillColor=none;align=left;verticalAlign=top;spacingLeft=4;spacingRight=4;overflow=hidden;rotatable=0;points=[[0,0.5],[1,0.5]];portConstraint=eastwest;whiteSpace=wrap;html=1;" vertex="1" parent="Qi_TZ8nRlaXqWhGWmoXV-134">
          <mxGeometry y="338" width="410" height="26" as="geometry" />
        </mxCell>
        <mxCell id="Qi_TZ8nRlaXqWhGWmoXV-148" value="randomizer : Random" style="text;strokeColor=none;fillColor=none;align=left;verticalAlign=top;spacingLeft=4;spacingRight=4;overflow=hidden;rotatable=0;points=[[0,0.5],[1,0.5]];portConstraint=eastwest;whiteSpace=wrap;html=1;" vertex="1" parent="Qi_TZ8nRlaXqWhGWmoXV-134">
          <mxGeometry y="364" width="410" height="26" as="geometry" />
        </mxCell>
        <mxCell id="Qi_TZ8nRlaXqWhGWmoXV-149" value="- gameScreen : GameScreen" style="text;strokeColor=none;fillColor=none;align=left;verticalAlign=top;spacingLeft=4;spacingRight=4;overflow=hidden;rotatable=0;points=[[0,0.5],[1,0.5]];portConstraint=eastwest;whiteSpace=wrap;html=1;" vertex="1" parent="Qi_TZ8nRlaXqWhGWmoXV-134">
          <mxGeometry y="390" width="410" height="26" as="geometry" />
        </mxCell>
        <mxCell id="Qi_TZ8nRlaXqWhGWmoXV-150" value="" style="line;strokeWidth=1;fillColor=none;align=left;verticalAlign=middle;spacingTop=-1;spacingLeft=3;spacingRight=3;rotatable=0;labelPosition=right;points=[];portConstraint=eastwest;strokeColor=inherit;" vertex="1" parent="Qi_TZ8nRlaXqWhGWmoXV-134">
          <mxGeometry y="416" width="410" height="8" as="geometry" />
        </mxCell>
        <mxCell id="Qi_TZ8nRlaXqWhGWmoXV-151" value="+ GameScreen()&amp;nbsp;" style="text;strokeColor=none;fillColor=none;align=left;verticalAlign=top;spacingLeft=4;spacingRight=4;overflow=hidden;rotatable=0;points=[[0,0.5],[1,0.5]];portConstraint=eastwest;whiteSpace=wrap;html=1;" vertex="1" parent="Qi_TZ8nRlaXqWhGWmoXV-134">
          <mxGeometry y="424" width="410" height="26" as="geometry" />
        </mxCell>
        <mxCell id="Qi_TZ8nRlaXqWhGWmoXV-152" value="+ getInstance() :GameScreen" style="text;strokeColor=none;fillColor=none;align=left;verticalAlign=top;spacingLeft=4;spacingRight=4;overflow=hidden;rotatable=0;points=[[0,0.5],[1,0.5]];portConstraint=eastwest;whiteSpace=wrap;html=1;" vertex="1" parent="Qi_TZ8nRlaXqWhGWmoXV-134">
          <mxGeometry y="450" width="410" height="26" as="geometry" />
        </mxCell>
        <mxCell id="Qi_TZ8nRlaXqWhGWmoXV-153" value="+ show() : void" style="text;strokeColor=none;fillColor=none;align=left;verticalAlign=top;spacingLeft=4;spacingRight=4;overflow=hidden;rotatable=0;points=[[0,0.5],[1,0.5]];portConstraint=eastwest;whiteSpace=wrap;html=1;" vertex="1" parent="Qi_TZ8nRlaXqWhGWmoXV-134">
          <mxGeometry y="476" width="410" height="26" as="geometry" />
        </mxCell>
        <mxCell id="Qi_TZ8nRlaXqWhGWmoXV-154" value="+ render(delta :float) : void" style="text;strokeColor=none;fillColor=none;align=left;verticalAlign=top;spacingLeft=4;spacingRight=4;overflow=hidden;rotatable=0;points=[[0,0.5],[1,0.5]];portConstraint=eastwest;whiteSpace=wrap;html=1;" vertex="1" parent="Qi_TZ8nRlaXqWhGWmoXV-134">
          <mxGeometry y="502" width="410" height="26" as="geometry" />
        </mxCell>
        <mxCell id="Qi_TZ8nRlaXqWhGWmoXV-155" value="+ update() : void" style="text;strokeColor=none;fillColor=none;align=left;verticalAlign=top;spacingLeft=4;spacingRight=4;overflow=hidden;rotatable=0;points=[[0,0.5],[1,0.5]];portConstraint=eastwest;whiteSpace=wrap;html=1;" vertex="1" parent="Qi_TZ8nRlaXqWhGWmoXV-134">
          <mxGeometry y="528" width="410" height="26" as="geometry" />
        </mxCell>
        <mxCell id="Qi_TZ8nRlaXqWhGWmoXV-156" value="+ spawnMonster(num : int) : void" style="text;strokeColor=none;fillColor=none;align=left;verticalAlign=top;spacingLeft=4;spacingRight=4;overflow=hidden;rotatable=0;points=[[0,0.5],[1,0.5]];portConstraint=eastwest;whiteSpace=wrap;html=1;" vertex="1" parent="Qi_TZ8nRlaXqWhGWmoXV-134">
          <mxGeometry y="554" width="410" height="26" as="geometry" />
        </mxCell>
        <mxCell id="Qi_TZ8nRlaXqWhGWmoXV-157" value="+ addScore(scr : int) : void" style="text;strokeColor=none;fillColor=none;align=left;verticalAlign=top;spacingLeft=4;spacingRight=4;overflow=hidden;rotatable=0;points=[[0,0.5],[1,0.5]];portConstraint=eastwest;whiteSpace=wrap;html=1;" vertex="1" parent="Qi_TZ8nRlaXqWhGWmoXV-134">
          <mxGeometry y="580" width="410" height="26" as="geometry" />
        </mxCell>
        <mxCell id="Qi_TZ8nRlaXqWhGWmoXV-158" value="+ updateLives(lives : int) : void" style="text;strokeColor=none;fillColor=none;align=left;verticalAlign=top;spacingLeft=4;spacingRight=4;overflow=hidden;rotatable=0;points=[[0,0.5],[1,0.5]];portConstraint=eastwest;whiteSpace=wrap;html=1;" vertex="1" parent="Qi_TZ8nRlaXqWhGWmoXV-134">
          <mxGeometry y="606" width="410" height="26" as="geometry" />
        </mxCell>
        <mxCell id="Qi_TZ8nRlaXqWhGWmoXV-159" value="+ resize(width : int , height : int) : void" style="text;strokeColor=none;fillColor=none;align=left;verticalAlign=top;spacingLeft=4;spacingRight=4;overflow=hidden;rotatable=0;points=[[0,0.5],[1,0.5]];portConstraint=eastwest;whiteSpace=wrap;html=1;" vertex="1" parent="Qi_TZ8nRlaXqWhGWmoXV-134">
          <mxGeometry y="632" width="410" height="26" as="geometry" />
        </mxCell>
        <mxCell id="Qi_TZ8nRlaXqWhGWmoXV-160" value="+ pause() : void" style="text;strokeColor=none;fillColor=none;align=left;verticalAlign=top;spacingLeft=4;spacingRight=4;overflow=hidden;rotatable=0;points=[[0,0.5],[1,0.5]];portConstraint=eastwest;whiteSpace=wrap;html=1;" vertex="1" parent="Qi_TZ8nRlaXqWhGWmoXV-134">
          <mxGeometry y="658" width="410" height="26" as="geometry" />
        </mxCell>
        <mxCell id="Qi_TZ8nRlaXqWhGWmoXV-161" value="+ resume() : void" style="text;strokeColor=none;fillColor=none;align=left;verticalAlign=top;spacingLeft=4;spacingRight=4;overflow=hidden;rotatable=0;points=[[0,0.5],[1,0.5]];portConstraint=eastwest;whiteSpace=wrap;html=1;" vertex="1" parent="Qi_TZ8nRlaXqWhGWmoXV-134">
          <mxGeometry y="684" width="410" height="26" as="geometry" />
        </mxCell>
        <mxCell id="Qi_TZ8nRlaXqWhGWmoXV-162" value="+ hide() : void" style="text;strokeColor=none;fillColor=none;align=left;verticalAlign=top;spacingLeft=4;spacingRight=4;overflow=hidden;rotatable=0;points=[[0,0.5],[1,0.5]];portConstraint=eastwest;whiteSpace=wrap;html=1;" vertex="1" parent="Qi_TZ8nRlaXqWhGWmoXV-134">
          <mxGeometry y="710" width="410" height="26" as="geometry" />
        </mxCell>
        <mxCell id="Qi_TZ8nRlaXqWhGWmoXV-163" value="+ dispose() : void" style="text;strokeColor=none;fillColor=none;align=left;verticalAlign=top;spacingLeft=4;spacingRight=4;overflow=hidden;rotatable=0;points=[[0,0.5],[1,0.5]];portConstraint=eastwest;whiteSpace=wrap;html=1;" vertex="1" parent="Qi_TZ8nRlaXqWhGWmoXV-134">
          <mxGeometry y="736" width="410" height="26" as="geometry" />
        </mxCell>
        <mxCell id="Qi_TZ8nRlaXqWhGWmoXV-164" value="+ keyDown(keycode :int) : boolean" style="text;strokeColor=none;fillColor=none;align=left;verticalAlign=top;spacingLeft=4;spacingRight=4;overflow=hidden;rotatable=0;points=[[0,0.5],[1,0.5]];portConstraint=eastwest;whiteSpace=wrap;html=1;" vertex="1" parent="Qi_TZ8nRlaXqWhGWmoXV-134">
          <mxGeometry y="762" width="410" height="26" as="geometry" />
        </mxCell>
        <mxCell id="Qi_TZ8nRlaXqWhGWmoXV-165" value="+ keyUp(keycode :int) : boolean" style="text;strokeColor=none;fillColor=none;align=left;verticalAlign=top;spacingLeft=4;spacingRight=4;overflow=hidden;rotatable=0;points=[[0,0.5],[1,0.5]];portConstraint=eastwest;whiteSpace=wrap;html=1;" vertex="1" parent="Qi_TZ8nRlaXqWhGWmoXV-134">
          <mxGeometry y="788" width="410" height="26" as="geometry" />
        </mxCell>
        <mxCell id="Qi_TZ8nRlaXqWhGWmoXV-166" value="+ keyTyped(character : char) : boolean" style="text;strokeColor=none;fillColor=none;align=left;verticalAlign=top;spacingLeft=4;spacingRight=4;overflow=hidden;rotatable=0;points=[[0,0.5],[1,0.5]];portConstraint=eastwest;whiteSpace=wrap;html=1;" vertex="1" parent="Qi_TZ8nRlaXqWhGWmoXV-134">
          <mxGeometry y="814" width="410" height="26" as="geometry" />
        </mxCell>
        <mxCell id="Qi_TZ8nRlaXqWhGWmoXV-167" value="+ touchDown (screenX : int, screenY : int, pointer : int, button :int) : boolean" style="text;strokeColor=none;fillColor=none;align=left;verticalAlign=top;spacingLeft=4;spacingRight=4;overflow=hidden;rotatable=0;points=[[0,0.5],[1,0.5]];portConstraint=eastwest;whiteSpace=wrap;html=1;" vertex="1" parent="Qi_TZ8nRlaXqWhGWmoXV-134">
          <mxGeometry y="840" width="410" height="26" as="geometry" />
        </mxCell>
        <mxCell id="Qi_TZ8nRlaXqWhGWmoXV-168" value="+ touchUp (screenX : int, screenY : int, pointer : int, button :int) : boolean" style="text;strokeColor=none;fillColor=none;align=left;verticalAlign=top;spacingLeft=4;spacingRight=4;overflow=hidden;rotatable=0;points=[[0,0.5],[1,0.5]];portConstraint=eastwest;whiteSpace=wrap;html=1;" vertex="1" parent="Qi_TZ8nRlaXqWhGWmoXV-134">
          <mxGeometry y="866" width="410" height="26" as="geometry" />
        </mxCell>
        <mxCell id="Qi_TZ8nRlaXqWhGWmoXV-169" value="+ touchDragged (screenX : int, screenY : int, pointer : int) : boolean" style="text;strokeColor=none;fillColor=none;align=left;verticalAlign=top;spacingLeft=4;spacingRight=4;overflow=hidden;rotatable=0;points=[[0,0.5],[1,0.5]];portConstraint=eastwest;whiteSpace=wrap;html=1;" vertex="1" parent="Qi_TZ8nRlaXqWhGWmoXV-134">
          <mxGeometry y="892" width="410" height="26" as="geometry" />
        </mxCell>
        <mxCell id="Qi_TZ8nRlaXqWhGWmoXV-170" value="+ mouseMoved (screenX : int, screenY :int) : boolean" style="text;strokeColor=none;fillColor=none;align=left;verticalAlign=top;spacingLeft=4;spacingRight=4;overflow=hidden;rotatable=0;points=[[0,0.5],[1,0.5]];portConstraint=eastwest;whiteSpace=wrap;html=1;" vertex="1" parent="Qi_TZ8nRlaXqWhGWmoXV-134">
          <mxGeometry y="918" width="410" height="26" as="geometry" />
        </mxCell>
        <mxCell id="Qi_TZ8nRlaXqWhGWmoXV-171" value="+ scrolled (amountX : float , amountY : float) : boolean" style="text;strokeColor=none;fillColor=none;align=left;verticalAlign=top;spacingLeft=4;spacingRight=4;overflow=hidden;rotatable=0;points=[[0,0.5],[1,0.5]];portConstraint=eastwest;whiteSpace=wrap;html=1;" vertex="1" parent="Qi_TZ8nRlaXqWhGWmoXV-134">
          <mxGeometry y="944" width="410" height="26" as="geometry" />
        </mxCell>
        <mxCell id="Qi_TZ8nRlaXqWhGWmoXV-209" value="Weapon" style="swimlane;fontStyle=1;align=center;verticalAlign=top;childLayout=stackLayout;horizontal=1;startSize=26;horizontalStack=0;resizeParent=1;resizeParentMax=0;resizeLast=0;collapsible=1;marginBottom=0;whiteSpace=wrap;html=1;" vertex="1" parent="1">
          <mxGeometry x="170" y="790" width="390" height="268" as="geometry" />
        </mxCell>
        <mxCell id="Qi_TZ8nRlaXqWhGWmoXV-210" value="# damage: float&lt;br&gt;" style="text;strokeColor=none;fillColor=none;align=left;verticalAlign=top;spacingLeft=4;spacingRight=4;overflow=hidden;rotatable=0;points=[[0,0.5],[1,0.5]];portConstraint=eastwest;whiteSpace=wrap;html=1;" vertex="1" parent="Qi_TZ8nRlaXqWhGWmoXV-209">
          <mxGeometry y="26" width="390" height="26" as="geometry" />
        </mxCell>
        <mxCell id="Qi_TZ8nRlaXqWhGWmoXV-211" value="# projectileLeftAnimation: Animation&amp;lt;TextureRegion&amp;gt;" style="text;strokeColor=none;fillColor=none;align=left;verticalAlign=top;spacingLeft=4;spacingRight=4;overflow=hidden;rotatable=0;points=[[0,0.5],[1,0.5]];portConstraint=eastwest;whiteSpace=wrap;html=1;" vertex="1" parent="Qi_TZ8nRlaXqWhGWmoXV-209">
          <mxGeometry y="52" width="390" height="26" as="geometry" />
        </mxCell>
        <mxCell id="Qi_TZ8nRlaXqWhGWmoXV-212" value="# projectileRightAnimation: Animation&amp;lt;TextureRegion&amp;gt;" style="text;strokeColor=none;fillColor=none;align=left;verticalAlign=top;spacingLeft=4;spacingRight=4;overflow=hidden;rotatable=0;points=[[0,0.5],[1,0.5]];portConstraint=eastwest;whiteSpace=wrap;html=1;" vertex="1" parent="Qi_TZ8nRlaXqWhGWmoXV-209">
          <mxGeometry y="78" width="390" height="26" as="geometry" />
        </mxCell>
        <mxCell id="Qi_TZ8nRlaXqWhGWmoXV-213" value="app : MyGdxGame" style="text;strokeColor=none;fillColor=none;align=left;verticalAlign=top;spacingLeft=4;spacingRight=4;overflow=hidden;rotatable=0;points=[[0,0.5],[1,0.5]];portConstraint=eastwest;whiteSpace=wrap;html=1;" vertex="1" parent="Qi_TZ8nRlaXqWhGWmoXV-209">
          <mxGeometry y="104" width="390" height="26" as="geometry" />
        </mxCell>
        <mxCell id="Qi_TZ8nRlaXqWhGWmoXV-214" value="assetManager : AssetManager" style="text;strokeColor=none;fillColor=none;align=left;verticalAlign=top;spacingLeft=4;spacingRight=4;overflow=hidden;rotatable=0;points=[[0,0.5],[1,0.5]];portConstraint=eastwest;whiteSpace=wrap;html=1;" vertex="1" parent="Qi_TZ8nRlaXqWhGWmoXV-209">
          <mxGeometry y="130" width="390" height="26" as="geometry" />
        </mxCell>
        <mxCell id="Qi_TZ8nRlaXqWhGWmoXV-215" value="" style="line;strokeWidth=1;fillColor=none;align=left;verticalAlign=middle;spacingTop=-1;spacingLeft=3;spacingRight=3;rotatable=0;labelPosition=right;points=[];portConstraint=eastwest;strokeColor=inherit;" vertex="1" parent="Qi_TZ8nRlaXqWhGWmoXV-209">
          <mxGeometry y="156" width="390" height="8" as="geometry" />
        </mxCell>
        <mxCell id="Qi_TZ8nRlaXqWhGWmoXV-216" value="+ Weapon()&amp;nbsp;&lt;br&gt;" style="text;strokeColor=none;fillColor=none;align=left;verticalAlign=top;spacingLeft=4;spacingRight=4;overflow=hidden;rotatable=0;points=[[0,0.5],[1,0.5]];portConstraint=eastwest;whiteSpace=wrap;html=1;" vertex="1" parent="Qi_TZ8nRlaXqWhGWmoXV-209">
          <mxGeometry y="164" width="390" height="26" as="geometry" />
        </mxCell>
        <mxCell id="Qi_TZ8nRlaXqWhGWmoXV-217" value="+ getDamage() : float" style="text;strokeColor=none;fillColor=none;align=left;verticalAlign=top;spacingLeft=4;spacingRight=4;overflow=hidden;rotatable=0;points=[[0,0.5],[1,0.5]];portConstraint=eastwest;whiteSpace=wrap;html=1;" vertex="1" parent="Qi_TZ8nRlaXqWhGWmoXV-209">
          <mxGeometry y="190" width="390" height="26" as="geometry" />
        </mxCell>
        <mxCell id="Qi_TZ8nRlaXqWhGWmoXV-218" value="+ setDamage(damage:float) : float" style="text;strokeColor=none;fillColor=none;align=left;verticalAlign=top;spacingLeft=4;spacingRight=4;overflow=hidden;rotatable=0;points=[[0,0.5],[1,0.5]];portConstraint=eastwest;whiteSpace=wrap;html=1;" vertex="1" parent="Qi_TZ8nRlaXqWhGWmoXV-209">
          <mxGeometry y="216" width="390" height="26" as="geometry" />
        </mxCell>
        <mxCell id="Qi_TZ8nRlaXqWhGWmoXV-219" value="+ attack (position : Vector2, direction : Direction) : AttackParticle" style="text;strokeColor=none;fillColor=none;align=left;verticalAlign=top;spacingLeft=4;spacingRight=4;overflow=hidden;rotatable=0;points=[[0,0.5],[1,0.5]];portConstraint=eastwest;whiteSpace=wrap;html=1;" vertex="1" parent="Qi_TZ8nRlaXqWhGWmoXV-209">
          <mxGeometry y="242" width="390" height="26" as="geometry" />
        </mxCell>
        <mxCell id="Qi_TZ8nRlaXqWhGWmoXV-229" value="Extends" style="endArrow=block;endSize=16;endFill=0;html=1;rounded=0;exitX=1.008;exitY=0.107;exitDx=0;exitDy=0;exitPerimeter=0;entryX=0;entryY=0.5;entryDx=0;entryDy=0;" edge="1" parent="1" source="UipS37Et1Q5YVo5d0hPh-52" target="UipS37Et1Q5YVo5d0hPh-6">
          <mxGeometry width="160" relative="1" as="geometry">
            <mxPoint x="1080" y="270" as="sourcePoint" />
            <mxPoint x="1170" y="200" as="targetPoint" />
            <Array as="points">
              <mxPoint x="890" y="220" />
            </Array>
          </mxGeometry>
        </mxCell>
        <mxCell id="Qi_TZ8nRlaXqWhGWmoXV-230" value="Extends" style="endArrow=block;endSize=16;endFill=0;html=1;rounded=0;exitX=1;exitY=0.5;exitDx=0;exitDy=0;entryX=0.005;entryY=0.828;entryDx=0;entryDy=0;entryPerimeter=0;" edge="1" parent="1" source="UipS37Et1Q5YVo5d0hPh-89" target="UipS37Et1Q5YVo5d0hPh-6">
          <mxGeometry width="160" relative="1" as="geometry">
            <mxPoint x="1080" y="426" as="sourcePoint" />
            <mxPoint x="1170" y="400" as="targetPoint" />
          </mxGeometry>
        </mxCell>
        <mxCell id="Qi_TZ8nRlaXqWhGWmoXV-231" value="Extends" style="endArrow=block;endSize=16;endFill=0;html=1;rounded=0;exitX=0.674;exitY=0.03;exitDx=0;exitDy=0;exitPerimeter=0;" edge="1" parent="1" source="UipS37Et1Q5YVo5d0hPh-75">
          <mxGeometry width="160" relative="1" as="geometry">
            <mxPoint x="700" y="196" as="sourcePoint" />
            <mxPoint x="370" y="350" as="targetPoint" />
          </mxGeometry>
        </mxCell>
        <mxCell id="Qi_TZ8nRlaXqWhGWmoXV-234" value="Extends" style="endArrow=block;endSize=16;endFill=0;html=1;rounded=0;entryX=0.5;entryY=0.5;entryDx=0;entryDy=0;entryPerimeter=0;exitX=0.5;exitY=0;exitDx=0;exitDy=0;" edge="1" parent="1" source="UipS37Et1Q5YVo5d0hPh-80" target="UipS37Et1Q5YVo5d0hPh-54">
          <mxGeometry width="160" relative="1" as="geometry">
            <mxPoint x="427" y="580" as="sourcePoint" />
            <mxPoint x="770" y="418" as="targetPoint" />
          </mxGeometry>
        </mxCell>
        <mxCell id="Qi_TZ8nRlaXqWhGWmoXV-235" value="Extends" style="endArrow=block;endSize=16;endFill=0;html=1;rounded=0;exitX=0.328;exitY=0.013;exitDx=0;exitDy=0;exitPerimeter=0;entryX=0.75;entryY=1;entryDx=0;entryDy=0;" edge="1" parent="1" source="UipS37Et1Q5YVo5d0hPh-84" target="UipS37Et1Q5YVo5d0hPh-52">
          <mxGeometry width="160" relative="1" as="geometry">
            <mxPoint x="690" y="442" as="sourcePoint" />
            <mxPoint x="440" y="350" as="targetPoint" />
          </mxGeometry>
        </mxCell>
        <mxCell id="Qi_TZ8nRlaXqWhGWmoXV-241" value="" style="endArrow=block;dashed=1;endFill=0;endSize=12;html=1;rounded=0;exitX=0.5;exitY=0;exitDx=0;exitDy=0;entryX=0.735;entryY=1.038;entryDx=0;entryDy=0;entryPerimeter=0;" edge="1" parent="1" target="UipS37Et1Q5YVo5d0hPh-66">
          <mxGeometry width="160" relative="1" as="geometry">
            <mxPoint x="690" y="200" as="sourcePoint" />
            <mxPoint x="690" y="160" as="targetPoint" />
          </mxGeometry>
        </mxCell>
        <mxCell id="Qi_TZ8nRlaXqWhGWmoXV-244" value="" style="endArrow=none;dashed=1;html=1;rounded=0;exitX=0.5;exitY=0;exitDx=0;exitDy=0;" edge="1" parent="1" source="UipS37Et1Q5YVo5d0hPh-52">
          <mxGeometry width="50" height="50" relative="1" as="geometry">
            <mxPoint x="440" y="240" as="sourcePoint" />
            <mxPoint x="440" y="200" as="targetPoint" />
          </mxGeometry>
        </mxCell>
        <mxCell id="Qi_TZ8nRlaXqWhGWmoXV-245" value="" style="endArrow=none;dashed=1;html=1;rounded=0;" edge="1" parent="1">
          <mxGeometry width="50" height="50" relative="1" as="geometry">
            <mxPoint x="960" y="200" as="sourcePoint" />
            <mxPoint x="440" y="200" as="targetPoint" />
            <Array as="points">
              <mxPoint x="570" y="200" />
            </Array>
          </mxGeometry>
        </mxCell>
        <mxCell id="Qi_TZ8nRlaXqWhGWmoXV-246" value="" style="endArrow=none;dashed=1;html=1;rounded=0;" edge="1" parent="1">
          <mxGeometry width="50" height="50" relative="1" as="geometry">
            <mxPoint x="960" y="260" as="sourcePoint" />
            <mxPoint x="960" y="200" as="targetPoint" />
          </mxGeometry>
        </mxCell>
        <mxCell id="Qi_TZ8nRlaXqWhGWmoXV-248" value="" style="endArrow=block;dashed=1;endFill=0;endSize=12;html=1;rounded=0;entryX=0.421;entryY=1.162;entryDx=0;entryDy=0;entryPerimeter=0;" edge="1" parent="1" target="UipS37Et1Q5YVo5d0hPh-62">
          <mxGeometry width="160" relative="1" as="geometry">
            <mxPoint x="690" y="200" as="sourcePoint" />
            <mxPoint x="700" y="107" as="targetPoint" />
          </mxGeometry>
        </mxCell>
        <mxCell id="Qi_TZ8nRlaXqWhGWmoXV-249" value="" style="endArrow=block;dashed=1;endFill=0;endSize=12;html=1;rounded=0;entryX=1;entryY=0.25;entryDx=0;entryDy=0;" edge="1" parent="1" target="UipS37Et1Q5YVo5d0hPh-71">
          <mxGeometry width="160" relative="1" as="geometry">
            <mxPoint x="690" y="200" as="sourcePoint" />
            <mxPoint x="695" y="107" as="targetPoint" />
          </mxGeometry>
        </mxCell>
        <mxCell id="Qi_TZ8nRlaXqWhGWmoXV-250" value="" style="endArrow=block;dashed=1;endFill=0;endSize=12;html=1;rounded=0;entryX=1;entryY=0.5;entryDx=0;entryDy=0;" edge="1" parent="1" target="UipS37Et1Q5YVo5d0hPh-67">
          <mxGeometry width="160" relative="1" as="geometry">
            <mxPoint x="690" y="200" as="sourcePoint" />
            <mxPoint x="430" y="135" as="targetPoint" />
            <Array as="points">
              <mxPoint x="430" y="100" />
            </Array>
          </mxGeometry>
        </mxCell>
        <mxCell id="Qi_TZ8nRlaXqWhGWmoXV-253" value="" style="endArrow=none;html=1;rounded=0;" edge="1" parent="1">
          <mxGeometry width="50" height="50" relative="1" as="geometry">
            <mxPoint x="130" y="1100" as="sourcePoint" />
            <mxPoint x="650" y="1100" as="targetPoint" />
          </mxGeometry>
        </mxCell>
        <mxCell id="Qi_TZ8nRlaXqWhGWmoXV-255" value="" style="endArrow=none;html=1;rounded=0;exitX=0.515;exitY=-0.001;exitDx=0;exitDy=0;exitPerimeter=0;" edge="1" parent="1" source="Qi_TZ8nRlaXqWhGWmoXV-28">
          <mxGeometry width="50" height="50" relative="1" as="geometry">
            <mxPoint x="-520" y="348" as="sourcePoint" />
            <mxPoint x="131" y="1100" as="targetPoint" />
          </mxGeometry>
        </mxCell>
        <mxCell id="Qi_TZ8nRlaXqWhGWmoXV-256" value="" style="endArrow=none;html=1;rounded=0;exitX=0.641;exitY=0.016;exitDx=0;exitDy=0;exitPerimeter=0;" edge="1" parent="1" source="Qi_TZ8nRlaXqWhGWmoXV-39">
          <mxGeometry width="50" height="50" relative="1" as="geometry">
            <mxPoint x="680" y="762" as="sourcePoint" />
            <mxPoint x="650" y="1102" as="targetPoint" />
          </mxGeometry>
        </mxCell>
        <mxCell id="Qi_TZ8nRlaXqWhGWmoXV-257" value="Extends" style="endArrow=block;endSize=16;endFill=0;html=1;rounded=0;entryX=0.49;entryY=0.981;entryDx=0;entryDy=0;entryPerimeter=0;" edge="1" parent="1" target="Qi_TZ8nRlaXqWhGWmoXV-219">
          <mxGeometry x="0.4441" y="5" width="160" relative="1" as="geometry">
            <mxPoint x="360" y="1102" as="sourcePoint" />
            <mxPoint x="360" y="1062" as="targetPoint" />
            <mxPoint as="offset" />
          </mxGeometry>
        </mxCell>
        <mxCell id="UipS37Et1Q5YVo5d0hPh-147" value="" style="endArrow=none;html=1;rounded=0;exitX=0.463;exitY=-0.004;exitDx=0;exitDy=0;exitPerimeter=0;" edge="1" parent="1" source="Qi_TZ8nRlaXqWhGWmoXV-44">
          <mxGeometry width="50" height="50" relative="1" as="geometry">
            <mxPoint x="363" y="1367" as="sourcePoint" />
            <mxPoint x="360" y="1102" as="targetPoint" />
          </mxGeometry>
        </mxCell>
        <mxCell id="x_2lU40mm3i1_xomOTd0-1" value="" style="endArrow=block;dashed=1;endFill=0;endSize=12;html=1;rounded=0;exitX=1.011;exitY=0.032;exitDx=0;exitDy=0;exitPerimeter=0;entryX=0;entryY=0.25;entryDx=0;entryDy=0;" edge="1" parent="1" source="Qi_TZ8nRlaXqWhGWmoXV-53" target="UipS37Et1Q5YVo5d0hPh-67">
          <mxGeometry width="160" relative="1" as="geometry">
            <mxPoint x="-40" y="210" as="sourcePoint" />
            <mxPoint x="120" y="210" as="targetPoint" />
          </mxGeometry>
        </mxCell>
        <mxCell id="x_2lU40mm3i1_xomOTd0-2" value="" style="endArrow=block;dashed=1;endFill=0;endSize=12;html=1;rounded=0;exitX=1;exitY=0.5;exitDx=0;exitDy=0;entryX=0;entryY=0.25;entryDx=0;entryDy=0;" edge="1" parent="1" source="Qi_TZ8nRlaXqWhGWmoXV-54" target="UipS37Et1Q5YVo5d0hPh-71">
          <mxGeometry width="160" relative="1" as="geometry">
            <mxPoint x="-46" y="92" as="sourcePoint" />
            <mxPoint x="90" y="35" as="targetPoint" />
          </mxGeometry>
        </mxCell>
        <mxCell id="x_2lU40mm3i1_xomOTd0-11" value="&lt;b&gt;&lt;i style=&quot;border-color: var(--border-color);&quot;&gt;&amp;lt;&amp;lt;Enumeration&amp;gt;&amp;gt;&lt;/i&gt;&amp;nbsp;Drawable&lt;/b&gt;" style="swimlane;fontStyle=0;childLayout=stackLayout;horizontal=1;startSize=26;fillColor=none;horizontalStack=0;resizeParent=1;resizeParentMax=0;resizeLast=0;collapsible=1;marginBottom=0;whiteSpace=wrap;html=1;" vertex="1" parent="1">
          <mxGeometry x="-450" y="830" width="190" height="130" as="geometry" />
        </mxCell>
        <mxCell id="x_2lU40mm3i1_xomOTd0-13" value="LEFT" style="text;strokeColor=none;fillColor=none;align=left;verticalAlign=top;spacingLeft=4;spacingRight=4;overflow=hidden;rotatable=0;points=[[0,0.5],[1,0.5]];portConstraint=eastwest;whiteSpace=wrap;html=1;" vertex="1" parent="x_2lU40mm3i1_xomOTd0-11">
          <mxGeometry y="26" width="190" height="26" as="geometry" />
        </mxCell>
        <mxCell id="x_2lU40mm3i1_xomOTd0-14" value="RIGHT" style="text;strokeColor=none;fillColor=none;align=left;verticalAlign=top;spacingLeft=4;spacingRight=4;overflow=hidden;rotatable=0;points=[[0,0.5],[1,0.5]];portConstraint=eastwest;whiteSpace=wrap;html=1;" vertex="1" parent="x_2lU40mm3i1_xomOTd0-11">
          <mxGeometry y="52" width="190" height="26" as="geometry" />
        </mxCell>
        <mxCell id="x_2lU40mm3i1_xomOTd0-15" value="UP" style="text;strokeColor=none;fillColor=none;align=left;verticalAlign=top;spacingLeft=4;spacingRight=4;overflow=hidden;rotatable=0;points=[[0,0.5],[1,0.5]];portConstraint=eastwest;whiteSpace=wrap;html=1;" vertex="1" parent="x_2lU40mm3i1_xomOTd0-11">
          <mxGeometry y="78" width="190" height="26" as="geometry" />
        </mxCell>
        <mxCell id="x_2lU40mm3i1_xomOTd0-16" value="DOWN" style="text;strokeColor=none;fillColor=none;align=left;verticalAlign=top;spacingLeft=4;spacingRight=4;overflow=hidden;rotatable=0;points=[[0,0.5],[1,0.5]];portConstraint=eastwest;whiteSpace=wrap;html=1;" vertex="1" parent="x_2lU40mm3i1_xomOTd0-11">
          <mxGeometry y="104" width="190" height="26" as="geometry" />
        </mxCell>
        <mxCell id="x_2lU40mm3i1_xomOTd0-18" value="&lt;b&gt;&lt;i style=&quot;border-color: var(--border-color);&quot;&gt;&amp;lt;&amp;lt;Enumeration&amp;gt;&amp;gt;&lt;/i&gt;&amp;nbsp;State&lt;/b&gt;" style="swimlane;fontStyle=0;childLayout=stackLayout;horizontal=1;startSize=26;fillColor=none;horizontalStack=0;resizeParent=1;resizeParentMax=0;resizeLast=0;collapsible=1;marginBottom=0;whiteSpace=wrap;html=1;" vertex="1" parent="1">
          <mxGeometry x="-200" y="830" width="190" height="156" as="geometry" />
        </mxCell>
        <mxCell id="x_2lU40mm3i1_xomOTd0-19" value="IDLE&lt;span style=&quot;white-space: pre;&quot;&gt;&#x9;&lt;/span&gt;" style="text;strokeColor=none;fillColor=none;align=left;verticalAlign=top;spacingLeft=4;spacingRight=4;overflow=hidden;rotatable=0;points=[[0,0.5],[1,0.5]];portConstraint=eastwest;whiteSpace=wrap;html=1;" vertex="1" parent="x_2lU40mm3i1_xomOTd0-18">
          <mxGeometry y="26" width="190" height="26" as="geometry" />
        </mxCell>
        <mxCell id="x_2lU40mm3i1_xomOTd0-20" value="MOVE" style="text;strokeColor=none;fillColor=none;align=left;verticalAlign=top;spacingLeft=4;spacingRight=4;overflow=hidden;rotatable=0;points=[[0,0.5],[1,0.5]];portConstraint=eastwest;whiteSpace=wrap;html=1;" vertex="1" parent="x_2lU40mm3i1_xomOTd0-18">
          <mxGeometry y="52" width="190" height="26" as="geometry" />
        </mxCell>
        <mxCell id="x_2lU40mm3i1_xomOTd0-21" value="ATTACK" style="text;strokeColor=none;fillColor=none;align=left;verticalAlign=top;spacingLeft=4;spacingRight=4;overflow=hidden;rotatable=0;points=[[0,0.5],[1,0.5]];portConstraint=eastwest;whiteSpace=wrap;html=1;" vertex="1" parent="x_2lU40mm3i1_xomOTd0-18">
          <mxGeometry y="78" width="190" height="26" as="geometry" />
        </mxCell>
        <mxCell id="x_2lU40mm3i1_xomOTd0-22" value="DIE" style="text;strokeColor=none;fillColor=none;align=left;verticalAlign=top;spacingLeft=4;spacingRight=4;overflow=hidden;rotatable=0;points=[[0,0.5],[1,0.5]];portConstraint=eastwest;whiteSpace=wrap;html=1;" vertex="1" parent="x_2lU40mm3i1_xomOTd0-18">
          <mxGeometry y="104" width="190" height="26" as="geometry" />
        </mxCell>
        <mxCell id="AkApbwU0wBhCeJ3w7Bce-5" value="INACTIVE" style="text;strokeColor=none;fillColor=none;align=left;verticalAlign=top;spacingLeft=4;spacingRight=4;overflow=hidden;rotatable=0;points=[[0,0.5],[1,0.5]];portConstraint=eastwest;whiteSpace=wrap;html=1;" vertex="1" parent="x_2lU40mm3i1_xomOTd0-18">
          <mxGeometry y="130" width="190" height="26" as="geometry" />
        </mxCell>
        <mxCell id="x_2lU40mm3i1_xomOTd0-24" value="Use" style="endArrow=open;endSize=12;dashed=1;html=1;rounded=0;exitX=0.389;exitY=1.325;exitDx=0;exitDy=0;exitPerimeter=0;entryX=0.5;entryY=0;entryDx=0;entryDy=0;" edge="1" parent="1" source="Qi_TZ8nRlaXqWhGWmoXV-171" target="Qi_TZ8nRlaXqWhGWmoXV-13">
          <mxGeometry width="160" relative="1" as="geometry">
            <mxPoint x="-1350" y="1070" as="sourcePoint" />
            <mxPoint x="-1190" y="1070" as="targetPoint" />
          </mxGeometry>
        </mxCell>
        <mxCell id="AkApbwU0wBhCeJ3w7Bce-1" value="" style="endArrow=diamondThin;endFill=1;endSize=24;html=1;rounded=0;exitX=1;exitY=0.5;exitDx=0;exitDy=0;entryX=0;entryY=0.5;entryDx=0;entryDy=0;" edge="1" parent="1" source="Qi_TZ8nRlaXqWhGWmoXV-78" target="UipS37Et1Q5YVo5d0hPh-106">
          <mxGeometry width="160" relative="1" as="geometry">
            <mxPoint x="800" y="690" as="sourcePoint" />
            <mxPoint x="960" y="690" as="targetPoint" />
            <Array as="points">
              <mxPoint x="360" y="730" />
            </Array>
          </mxGeometry>
        </mxCell>
        <mxCell id="AkApbwU0wBhCeJ3w7Bce-3" value="" style="endArrow=diamondThin;endFill=1;endSize=24;html=1;rounded=0;exitX=1;exitY=0.5;exitDx=0;exitDy=0;entryX=0;entryY=0.5;entryDx=0;entryDy=0;" edge="1" parent="1" source="Qi_TZ8nRlaXqWhGWmoXV-81" target="UipS37Et1Q5YVo5d0hPh-53">
          <mxGeometry width="160" relative="1" as="geometry">
            <mxPoint x="10" y="360" as="sourcePoint" />
            <mxPoint x="170" y="360" as="targetPoint" />
          </mxGeometry>
        </mxCell>
        <mxCell id="AkApbwU0wBhCeJ3w7Bce-6" value="Use" style="endArrow=open;endSize=12;dashed=1;html=1;rounded=0;exitX=1;exitY=0.5;exitDx=0;exitDy=0;" edge="1" parent="1" source="Qi_TZ8nRlaXqWhGWmoXV-160">
          <mxGeometry width="160" relative="1" as="geometry">
            <mxPoint x="-720" y="730" as="sourcePoint" />
            <mxPoint x="-240" y="800" as="targetPoint" />
          </mxGeometry>
        </mxCell>
        <mxCell id="AkApbwU0wBhCeJ3w7Bce-8" value="" style="endArrow=none;dashed=1;html=1;rounded=0;entryX=0.422;entryY=-0.004;entryDx=0;entryDy=0;entryPerimeter=0;" edge="1" parent="1" target="x_2lU40mm3i1_xomOTd0-18">
          <mxGeometry width="50" height="50" relative="1" as="geometry">
            <mxPoint x="-370" y="830" as="sourcePoint" />
            <mxPoint x="-30" y="800" as="targetPoint" />
            <Array as="points">
              <mxPoint x="-370" y="800" />
              <mxPoint x="-280" y="800" />
              <mxPoint x="-120" y="800" />
            </Array>
          </mxGeometry>
        </mxCell>
        <mxCell id="AkApbwU0wBhCeJ3w7Bce-9" value="Use" style="endArrow=open;endSize=12;dashed=1;html=1;rounded=0;exitX=-0.004;exitY=0.019;exitDx=0;exitDy=0;exitPerimeter=0;" edge="1" parent="1" source="UipS37Et1Q5YVo5d0hPh-57">
          <mxGeometry width="160" relative="1" as="geometry">
            <mxPoint x="210" y="370" as="sourcePoint" />
            <mxPoint x="-240" y="800" as="targetPoint" />
            <Array as="points">
              <mxPoint y="480" />
              <mxPoint y="760" />
            </Array>
          </mxGeometry>
        </mxCell>
        <mxCell id="AkApbwU0wBhCeJ3w7Bce-11" value="Use" style="endArrow=open;endSize=12;dashed=1;html=1;rounded=0;exitX=-0.016;exitY=-0.051;exitDx=0;exitDy=0;exitPerimeter=0;" edge="1" parent="1" source="UipS37Et1Q5YVo5d0hPh-108">
          <mxGeometry width="160" relative="1" as="geometry">
            <mxPoint x="520" y="740" as="sourcePoint" />
            <mxPoint x="-230" y="800" as="targetPoint" />
            <Array as="points">
              <mxPoint x="190" y="760" />
            </Array>
          </mxGeometry>
        </mxCell>
        <mxCell id="AkApbwU0wBhCeJ3w7Bce-4" value="" style="endArrow=diamondThin;endFill=1;endSize=24;html=1;rounded=0;exitX=0;exitY=0.5;exitDx=0;exitDy=0;entryX=1;entryY=0.5;entryDx=0;entryDy=0;" edge="1" parent="1" source="Qi_TZ8nRlaXqWhGWmoXV-54" target="Qi_TZ8nRlaXqWhGWmoXV-135">
          <mxGeometry width="160" relative="1" as="geometry">
            <mxPoint x="-690" y="420" as="sourcePoint" />
            <mxPoint x="-530" y="420" as="targetPoint" />
          </mxGeometry>
        </mxCell>
        <mxCell id="AkApbwU0wBhCeJ3w7Bce-13" value="" style="endArrow=diamondThin;endFill=0;endSize=24;html=1;rounded=0;exitX=0.517;exitY=1.404;exitDx=0;exitDy=0;entryX=-0.009;entryY=-0.1;entryDx=0;entryDy=0;entryPerimeter=0;exitPerimeter=0;" edge="1" parent="1" source="UipS37Et1Q5YVo5d0hPh-139" target="Qi_TZ8nRlaXqWhGWmoXV-23">
          <mxGeometry width="160" relative="1" as="geometry">
            <mxPoint x="-1600" y="860" as="sourcePoint" />
            <mxPoint x="-1440" y="860" as="targetPoint" />
            <Array as="points">
              <mxPoint x="-1380" y="1030" />
            </Array>
          </mxGeometry>
        </mxCell>
      </root>
    </mxGraphModel>
  </diagram>
</mxfile>
